<mxfile host="Electron" modified="2024-05-29T10:18:42.071Z" agent="Mozilla/5.0 (Windows NT 10.0; Win64; x64) AppleWebKit/537.36 (KHTML, like Gecko) draw.io/24.4.0 Chrome/120.0.6099.109 Electron/28.1.0 Safari/537.36" etag="yyOvxPDAAdpySzyakd7e" version="24.4.0" type="device">
  <diagram name="PÃ¡gina-1" id="8o_XNwWxTWwtjrBpJaIR">
    <mxGraphModel dx="2128" dy="2148" grid="1" gridSize="10" guides="1" tooltips="1" connect="1" arrows="1" fold="1" page="1" pageScale="1" pageWidth="827" pageHeight="1169" math="0" shadow="0">
      <root>
        <mxCell id="0" />
        <mxCell id="1" parent="0" />
        <mxCell id="Dxokil4xpBBhdSCMF68X-186" value="" style="group" parent="1" connectable="0" vertex="1">
          <mxGeometry x="-570" y="630" width="900" height="730" as="geometry" />
        </mxCell>
        <mxCell id="Dxokil4xpBBhdSCMF68X-183" value="" style="rounded=1;whiteSpace=wrap;html=1;fillColor=#ffffff;" parent="Dxokil4xpBBhdSCMF68X-186" vertex="1">
          <mxGeometry width="900" height="730" as="geometry" />
        </mxCell>
        <mxCell id="Dxokil4xpBBhdSCMF68X-135" style="rounded=0;orthogonalLoop=1;jettySize=auto;html=1;exitX=0.5;exitY=0;exitDx=0;exitDy=0;endArrow=diamondThin;endFill=0;jumpSize=13;startSize=15;endSize=20;" parent="Dxokil4xpBBhdSCMF68X-186" source="Dxokil4xpBBhdSCMF68X-37" target="Dxokil4xpBBhdSCMF68X-132" edge="1">
          <mxGeometry relative="1" as="geometry" />
        </mxCell>
        <mxCell id="Dxokil4xpBBhdSCMF68X-41" value="Helicopter" style="swimlane;fontStyle=1;align=center;verticalAlign=top;childLayout=stackLayout;horizontal=1;startSize=26;horizontalStack=0;resizeParent=1;resizeParentMax=0;resizeLast=0;collapsible=1;marginBottom=0;whiteSpace=wrap;html=1;" parent="Dxokil4xpBBhdSCMF68X-186" vertex="1">
          <mxGeometry x="340" y="614" width="160" height="34" as="geometry" />
        </mxCell>
        <mxCell id="Dxokil4xpBBhdSCMF68X-42" value="" style="line;strokeWidth=1;fillColor=none;align=left;verticalAlign=middle;spacingTop=-1;spacingLeft=3;spacingRight=3;rotatable=0;labelPosition=right;points=[];portConstraint=eastwest;strokeColor=inherit;" parent="Dxokil4xpBBhdSCMF68X-41" vertex="1">
          <mxGeometry y="26" width="160" height="8" as="geometry" />
        </mxCell>
        <mxCell id="Dxokil4xpBBhdSCMF68X-43" style="rounded=0;orthogonalLoop=1;jettySize=auto;html=1;exitX=0.5;exitY=0;exitDx=0;exitDy=0;strokeColor=default;align=center;verticalAlign=middle;fontFamily=Helvetica;fontSize=11;fontColor=default;labelBackgroundColor=default;endArrow=block;endFill=0;endSize=10;" parent="Dxokil4xpBBhdSCMF68X-186" source="Dxokil4xpBBhdSCMF68X-44" target="Dxokil4xpBBhdSCMF68X-37" edge="1">
          <mxGeometry relative="1" as="geometry">
            <mxPoint x="480" y="601" as="targetPoint" />
          </mxGeometry>
        </mxCell>
        <mxCell id="Dxokil4xpBBhdSCMF68X-44" value="Scooter" style="swimlane;fontStyle=1;align=center;verticalAlign=top;childLayout=stackLayout;horizontal=1;startSize=26;horizontalStack=0;resizeParent=1;resizeParentMax=0;resizeLast=0;collapsible=1;marginBottom=0;whiteSpace=wrap;html=1;" parent="Dxokil4xpBBhdSCMF68X-186" vertex="1">
          <mxGeometry x="540" y="614" width="160" height="34" as="geometry" />
        </mxCell>
        <mxCell id="Dxokil4xpBBhdSCMF68X-45" value="" style="line;strokeWidth=1;fillColor=none;align=left;verticalAlign=middle;spacingTop=-1;spacingLeft=3;spacingRight=3;rotatable=0;labelPosition=right;points=[];portConstraint=eastwest;strokeColor=inherit;" parent="Dxokil4xpBBhdSCMF68X-44" vertex="1">
          <mxGeometry y="26" width="160" height="8" as="geometry" />
        </mxCell>
        <mxCell id="Dxokil4xpBBhdSCMF68X-46" value="Yatch" style="swimlane;fontStyle=1;align=center;verticalAlign=top;childLayout=stackLayout;horizontal=1;startSize=26;horizontalStack=0;resizeParent=1;resizeParentMax=0;resizeLast=0;collapsible=1;marginBottom=0;whiteSpace=wrap;html=1;" parent="Dxokil4xpBBhdSCMF68X-186" vertex="1">
          <mxGeometry x="710" y="359" width="160" height="88" as="geometry" />
        </mxCell>
        <mxCell id="Dxokil4xpBBhdSCMF68X-47" value="+ length:int&lt;div&gt;+ weight:float&lt;/div&gt;&lt;div&gt;+ trade:str&lt;/div&gt;" style="text;strokeColor=none;fillColor=none;align=left;verticalAlign=top;spacingLeft=4;spacingRight=4;overflow=hidden;rotatable=0;points=[[0,0.5],[1,0.5]];portConstraint=eastwest;whiteSpace=wrap;html=1;" parent="Dxokil4xpBBhdSCMF68X-46" vertex="1">
          <mxGeometry y="26" width="160" height="54" as="geometry" />
        </mxCell>
        <mxCell id="Dxokil4xpBBhdSCMF68X-48" value="" style="line;strokeWidth=1;fillColor=none;align=left;verticalAlign=middle;spacingTop=-1;spacingLeft=3;spacingRight=3;rotatable=0;labelPosition=right;points=[];portConstraint=eastwest;strokeColor=inherit;" parent="Dxokil4xpBBhdSCMF68X-46" vertex="1">
          <mxGeometry y="80" width="160" height="8" as="geometry" />
        </mxCell>
        <mxCell id="Dxokil4xpBBhdSCMF68X-49" value="Truck" style="swimlane;fontStyle=1;align=center;verticalAlign=top;childLayout=stackLayout;horizontal=1;startSize=26;horizontalStack=0;resizeParent=1;resizeParentMax=0;resizeLast=0;collapsible=1;marginBottom=0;whiteSpace=wrap;html=1;" parent="Dxokil4xpBBhdSCMF68X-186" vertex="1">
          <mxGeometry x="110" y="489" width="240" height="86" as="geometry" />
        </mxCell>
        <mxCell id="Dxokil4xpBBhdSCMF68X-123" value="- consumption: float" style="text;strokeColor=none;fillColor=none;align=left;verticalAlign=top;spacingLeft=4;spacingRight=4;overflow=hidden;rotatable=0;points=[[0,0.5],[1,0.5]];portConstraint=eastwest;whiteSpace=wrap;html=1;" parent="Dxokil4xpBBhdSCMF68X-49" vertex="1">
          <mxGeometry y="26" width="240" height="26" as="geometry" />
        </mxCell>
        <mxCell id="Dxokil4xpBBhdSCMF68X-50" value="" style="line;strokeWidth=1;fillColor=none;align=left;verticalAlign=middle;spacingTop=-1;spacingLeft=3;spacingRight=3;rotatable=0;labelPosition=right;points=[];portConstraint=eastwest;strokeColor=inherit;" parent="Dxokil4xpBBhdSCMF68X-49" vertex="1">
          <mxGeometry y="52" width="240" height="8" as="geometry" />
        </mxCell>
        <mxCell id="Dxokil4xpBBhdSCMF68X-51" value="+ calculate_gas_consumption():float" style="text;strokeColor=none;fillColor=none;align=left;verticalAlign=top;spacingLeft=4;spacingRight=4;overflow=hidden;rotatable=0;points=[[0,0.5],[1,0.5]];portConstraint=eastwest;whiteSpace=wrap;html=1;" parent="Dxokil4xpBBhdSCMF68X-49" vertex="1">
          <mxGeometry y="60" width="240" height="26" as="geometry" />
        </mxCell>
        <mxCell id="Dxokil4xpBBhdSCMF68X-52" style="rounded=0;orthogonalLoop=1;jettySize=auto;html=1;exitX=1;exitY=0.5;exitDx=0;exitDy=0;endArrow=block;endFill=0;strokeColor=default;align=center;verticalAlign=middle;fontFamily=Helvetica;fontSize=11;fontColor=default;labelBackgroundColor=default;endSize=10;" parent="Dxokil4xpBBhdSCMF68X-186" source="Dxokil4xpBBhdSCMF68X-53" target="Dxokil4xpBBhdSCMF68X-37" edge="1">
          <mxGeometry relative="1" as="geometry" />
        </mxCell>
        <mxCell id="Dxokil4xpBBhdSCMF68X-53" value="Motorcycle" style="swimlane;fontStyle=1;align=center;verticalAlign=top;childLayout=stackLayout;horizontal=1;startSize=26;horizontalStack=0;resizeParent=1;resizeParentMax=0;resizeLast=0;collapsible=1;marginBottom=0;whiteSpace=wrap;html=1;" parent="Dxokil4xpBBhdSCMF68X-186" vertex="1">
          <mxGeometry x="140" y="386" width="160" height="34" as="geometry" />
        </mxCell>
        <mxCell id="Dxokil4xpBBhdSCMF68X-54" value="" style="line;strokeWidth=1;fillColor=none;align=left;verticalAlign=middle;spacingTop=-1;spacingLeft=3;spacingRight=3;rotatable=0;labelPosition=right;points=[];portConstraint=eastwest;strokeColor=inherit;" parent="Dxokil4xpBBhdSCMF68X-53" vertex="1">
          <mxGeometry y="26" width="160" height="8" as="geometry" />
        </mxCell>
        <mxCell id="Dxokil4xpBBhdSCMF68X-55" style="rounded=0;orthogonalLoop=1;jettySize=auto;html=1;strokeColor=default;align=center;verticalAlign=middle;fontFamily=Helvetica;fontSize=11;fontColor=default;labelBackgroundColor=default;endArrow=block;endFill=0;endSize=10;" parent="Dxokil4xpBBhdSCMF68X-186" source="Dxokil4xpBBhdSCMF68X-56" target="Dxokil4xpBBhdSCMF68X-128" edge="1">
          <mxGeometry relative="1" as="geometry" />
        </mxCell>
        <mxCell id="Dxokil4xpBBhdSCMF68X-56" value="Car" style="swimlane;fontStyle=1;align=center;verticalAlign=top;childLayout=stackLayout;horizontal=1;startSize=26;horizontalStack=0;resizeParent=1;resizeParentMax=0;resizeLast=0;collapsible=1;marginBottom=0;whiteSpace=wrap;html=1;" parent="Dxokil4xpBBhdSCMF68X-186" vertex="1">
          <mxGeometry x="710" y="487" width="160" height="88" as="geometry" />
        </mxCell>
        <mxCell id="Dxokil4xpBBhdSCMF68X-57" value="+ transmission:str&lt;br&gt;+ trade:str&lt;div&gt;+ combustible_type:str&lt;/div&gt;" style="text;strokeColor=none;fillColor=none;align=left;verticalAlign=top;spacingLeft=4;spacingRight=4;overflow=hidden;rotatable=0;points=[[0,0.5],[1,0.5]];portConstraint=eastwest;whiteSpace=wrap;html=1;" parent="Dxokil4xpBBhdSCMF68X-56" vertex="1">
          <mxGeometry y="26" width="160" height="54" as="geometry" />
        </mxCell>
        <mxCell id="Dxokil4xpBBhdSCMF68X-58" value="" style="line;strokeWidth=1;fillColor=none;align=left;verticalAlign=middle;spacingTop=-1;spacingLeft=3;spacingRight=3;rotatable=0;labelPosition=right;points=[];portConstraint=eastwest;strokeColor=inherit;" parent="Dxokil4xpBBhdSCMF68X-56" vertex="1">
          <mxGeometry y="80" width="160" height="8" as="geometry" />
        </mxCell>
        <mxCell id="Dxokil4xpBBhdSCMF68X-102" style="rounded=0;orthogonalLoop=1;jettySize=auto;html=1;exitX=1;exitY=0.5;exitDx=0;exitDy=0;endArrow=block;endFill=0;strokeColor=default;align=center;verticalAlign=middle;fontFamily=Helvetica;fontSize=11;fontColor=default;labelBackgroundColor=default;endSize=10;" parent="Dxokil4xpBBhdSCMF68X-186" source="Dxokil4xpBBhdSCMF68X-123" target="Dxokil4xpBBhdSCMF68X-37" edge="1">
          <mxGeometry relative="1" as="geometry">
            <mxPoint x="340" y="608" as="sourcePoint" />
            <mxPoint x="383" y="619" as="targetPoint" />
          </mxGeometry>
        </mxCell>
        <mxCell id="Dxokil4xpBBhdSCMF68X-103" style="rounded=0;orthogonalLoop=1;jettySize=auto;html=1;strokeColor=default;align=center;verticalAlign=middle;fontFamily=Helvetica;fontSize=11;fontColor=default;labelBackgroundColor=default;endArrow=block;endFill=0;endSize=10;" parent="Dxokil4xpBBhdSCMF68X-186" source="Dxokil4xpBBhdSCMF68X-41" target="Dxokil4xpBBhdSCMF68X-37" edge="1">
          <mxGeometry relative="1" as="geometry" />
        </mxCell>
        <mxCell id="Dxokil4xpBBhdSCMF68X-104" style="rounded=0;orthogonalLoop=1;jettySize=auto;html=1;strokeColor=default;align=center;verticalAlign=middle;fontFamily=Helvetica;fontSize=11;fontColor=default;labelBackgroundColor=default;endArrow=block;endFill=0;endSize=10;" parent="Dxokil4xpBBhdSCMF68X-186" source="Dxokil4xpBBhdSCMF68X-46" target="Dxokil4xpBBhdSCMF68X-37" edge="1">
          <mxGeometry relative="1" as="geometry" />
        </mxCell>
        <mxCell id="Dxokil4xpBBhdSCMF68X-132" value="VehicleFacade" style="swimlane;fontStyle=1;align=center;verticalAlign=top;childLayout=stackLayout;horizontal=1;startSize=26;horizontalStack=0;resizeParent=1;resizeParentMax=0;resizeLast=0;collapsible=1;marginBottom=0;whiteSpace=wrap;html=1;" parent="Dxokil4xpBBhdSCMF68X-186" vertex="1">
          <mxGeometry x="50" y="89" width="380" height="60" as="geometry" />
        </mxCell>
        <mxCell id="Dxokil4xpBBhdSCMF68X-133" value="" style="line;strokeWidth=1;fillColor=none;align=left;verticalAlign=middle;spacingTop=-1;spacingLeft=3;spacingRight=3;rotatable=0;labelPosition=right;points=[];portConstraint=eastwest;strokeColor=inherit;" parent="Dxokil4xpBBhdSCMF68X-132" vertex="1">
          <mxGeometry y="26" width="380" height="8" as="geometry" />
        </mxCell>
        <mxCell id="Dxokil4xpBBhdSCMF68X-134" value="+ create_vehicle(type_vehicle, type_engine, price_engine)" style="text;strokeColor=none;fillColor=none;align=left;verticalAlign=top;spacingLeft=4;spacingRight=4;overflow=hidden;rotatable=0;points=[[0,0.5],[1,0.5]];portConstraint=eastwest;whiteSpace=wrap;html=1;" parent="Dxokil4xpBBhdSCMF68X-132" vertex="1">
          <mxGeometry y="34" width="380" height="26" as="geometry" />
        </mxCell>
        <mxCell id="Dxokil4xpBBhdSCMF68X-136" value="EngineFlyweight" style="swimlane;fontStyle=1;align=center;verticalAlign=top;childLayout=stackLayout;horizontal=1;startSize=26;horizontalStack=0;resizeParent=1;resizeParentMax=0;resizeLast=0;collapsible=1;marginBottom=0;whiteSpace=wrap;html=1;" parent="Dxokil4xpBBhdSCMF68X-186" vertex="1">
          <mxGeometry x="530" y="80" width="280" height="86" as="geometry" />
        </mxCell>
        <mxCell id="Dxokil4xpBBhdSCMF68X-139" value="+ engines: dict" style="text;strokeColor=none;fillColor=none;align=left;verticalAlign=top;spacingLeft=4;spacingRight=4;overflow=hidden;rotatable=0;points=[[0,0.5],[1,0.5]];portConstraint=eastwest;whiteSpace=wrap;html=1;" parent="Dxokil4xpBBhdSCMF68X-136" vertex="1">
          <mxGeometry y="26" width="280" height="26" as="geometry" />
        </mxCell>
        <mxCell id="Dxokil4xpBBhdSCMF68X-137" value="" style="line;strokeWidth=1;fillColor=none;align=left;verticalAlign=middle;spacingTop=-1;spacingLeft=3;spacingRight=3;rotatable=0;labelPosition=right;points=[];portConstraint=eastwest;strokeColor=inherit;" parent="Dxokil4xpBBhdSCMF68X-136" vertex="1">
          <mxGeometry y="52" width="280" height="8" as="geometry" />
        </mxCell>
        <mxCell id="Dxokil4xpBBhdSCMF68X-138" value="+ create_engine(type_engine, price_engine)" style="text;strokeColor=none;fillColor=none;align=left;verticalAlign=top;spacingLeft=4;spacingRight=4;overflow=hidden;rotatable=0;points=[[0,0.5],[1,0.5]];portConstraint=eastwest;whiteSpace=wrap;html=1;" parent="Dxokil4xpBBhdSCMF68X-136" vertex="1">
          <mxGeometry y="60" width="280" height="26" as="geometry" />
        </mxCell>
        <mxCell id="Dxokil4xpBBhdSCMF68X-140" style="rounded=0;orthogonalLoop=1;jettySize=auto;html=1;exitX=0;exitY=0.5;exitDx=0;exitDy=0;entryX=1;entryY=0.5;entryDx=0;entryDy=0;endArrow=diamondThin;endFill=0;strokeColor=default;align=center;verticalAlign=middle;fontFamily=Helvetica;fontSize=11;fontColor=default;labelBackgroundColor=default;jumpSize=13;startSize=15;endSize=20;" parent="Dxokil4xpBBhdSCMF68X-186" source="Dxokil4xpBBhdSCMF68X-139" target="Dxokil4xpBBhdSCMF68X-132" edge="1">
          <mxGeometry relative="1" as="geometry" />
        </mxCell>
        <mxCell id="Dxokil4xpBBhdSCMF68X-37" value="Vehicle" style="swimlane;fontStyle=1;align=center;verticalAlign=top;childLayout=stackLayout;horizontal=1;startSize=26;horizontalStack=0;resizeParent=1;resizeParentMax=0;resizeLast=0;collapsible=1;marginBottom=0;whiteSpace=wrap;html=1;" parent="Dxokil4xpBBhdSCMF68X-186" vertex="1">
          <mxGeometry x="380" y="261" width="267" height="284" as="geometry" />
        </mxCell>
        <mxCell id="Dxokil4xpBBhdSCMF68X-38" value="&lt;div&gt;- chasis: str&lt;/div&gt;" style="text;align=left;verticalAlign=top;spacingLeft=4;spacingRight=4;overflow=hidden;rotatable=0;points=[[0,0.5],[1,0.5]];portConstraint=eastwest;whiteSpace=wrap;html=1;" parent="Dxokil4xpBBhdSCMF68X-37" vertex="1">
          <mxGeometry y="26" width="267" height="24" as="geometry" />
        </mxCell>
        <mxCell id="Dxokil4xpBBhdSCMF68X-124" value="&lt;div&gt;- price: float&lt;/div&gt;" style="text;align=left;verticalAlign=top;spacingLeft=4;spacingRight=4;overflow=hidden;rotatable=0;points=[[0,0.5],[1,0.5]];portConstraint=eastwest;whiteSpace=wrap;html=1;" parent="Dxokil4xpBBhdSCMF68X-37" vertex="1">
          <mxGeometry y="50" width="267" height="24" as="geometry" />
        </mxCell>
        <mxCell id="Dxokil4xpBBhdSCMF68X-125" value="&lt;div&gt;- engine: Engine&lt;/div&gt;" style="text;align=left;verticalAlign=top;spacingLeft=4;spacingRight=4;overflow=hidden;rotatable=0;points=[[0,0.5],[1,0.5]];portConstraint=eastwest;whiteSpace=wrap;html=1;" parent="Dxokil4xpBBhdSCMF68X-37" vertex="1">
          <mxGeometry y="74" width="267" height="24" as="geometry" />
        </mxCell>
        <mxCell id="Dxokil4xpBBhdSCMF68X-127" value="-model:str" style="text;align=left;verticalAlign=top;spacingLeft=4;spacingRight=4;overflow=hidden;rotatable=0;points=[[0,0.5],[1,0.5]];portConstraint=eastwest;whiteSpace=wrap;html=1;" parent="Dxokil4xpBBhdSCMF68X-37" vertex="1">
          <mxGeometry y="98" width="267" height="24" as="geometry" />
        </mxCell>
        <mxCell id="Dxokil4xpBBhdSCMF68X-126" value="-year: int" style="text;align=left;verticalAlign=top;spacingLeft=4;spacingRight=4;overflow=hidden;rotatable=0;points=[[0,0.5],[1,0.5]];portConstraint=eastwest;whiteSpace=wrap;html=1;" parent="Dxokil4xpBBhdSCMF68X-37" vertex="1">
          <mxGeometry y="122" width="267" height="24" as="geometry" />
        </mxCell>
        <mxCell id="Dxokil4xpBBhdSCMF68X-39" value="" style="line;strokeWidth=1;fillColor=none;align=left;verticalAlign=middle;spacingTop=-1;spacingLeft=3;spacingRight=3;rotatable=0;labelPosition=right;points=[];portConstraint=eastwest;strokeColor=inherit;" parent="Dxokil4xpBBhdSCMF68X-37" vertex="1">
          <mxGeometry y="146" width="267" height="8" as="geometry" />
        </mxCell>
        <mxCell id="Dxokil4xpBBhdSCMF68X-40" value="+ Vehicle(chassis, price, engine, model, year)" style="text;strokeColor=none;fillColor=none;align=left;verticalAlign=top;spacingLeft=4;spacingRight=4;overflow=hidden;rotatable=0;points=[[0,0.5],[1,0.5]];portConstraint=eastwest;whiteSpace=wrap;html=1;" parent="Dxokil4xpBBhdSCMF68X-37" vertex="1">
          <mxGeometry y="154" width="267" height="26" as="geometry" />
        </mxCell>
        <mxCell id="Dxokil4xpBBhdSCMF68X-129" value="+ isChassis(chassis): boolean" style="text;strokeColor=none;fillColor=none;align=left;verticalAlign=top;spacingLeft=4;spacingRight=4;overflow=hidden;rotatable=0;points=[[0,0.5],[1,0.5]];portConstraint=eastwest;whiteSpace=wrap;html=1;" parent="Dxokil4xpBBhdSCMF68X-37" vertex="1">
          <mxGeometry y="180" width="267" height="26" as="geometry" />
        </mxCell>
        <mxCell id="Dxokil4xpBBhdSCMF68X-130" value="+ isInPrice(min_price, max_price)" style="text;strokeColor=none;fillColor=none;align=left;verticalAlign=top;spacingLeft=4;spacingRight=4;overflow=hidden;rotatable=0;points=[[0,0.5],[1,0.5]];portConstraint=eastwest;whiteSpace=wrap;html=1;" parent="Dxokil4xpBBhdSCMF68X-37" vertex="1">
          <mxGeometry y="206" width="267" height="26" as="geometry" />
        </mxCell>
        <mxCell id="Dxokil4xpBBhdSCMF68X-131" value="+ isInYear(min_year, max_year)" style="text;strokeColor=none;fillColor=none;align=left;verticalAlign=top;spacingLeft=4;spacingRight=4;overflow=hidden;rotatable=0;points=[[0,0.5],[1,0.5]];portConstraint=eastwest;whiteSpace=wrap;html=1;" parent="Dxokil4xpBBhdSCMF68X-37" vertex="1">
          <mxGeometry y="232" width="267" height="26" as="geometry" />
        </mxCell>
        <mxCell id="Dxokil4xpBBhdSCMF68X-128" value="+ isInSpeed(min_speed, max_speed)" style="text;strokeColor=none;fillColor=none;align=left;verticalAlign=top;spacingLeft=4;spacingRight=4;overflow=hidden;rotatable=0;points=[[0,0.5],[1,0.5]];portConstraint=eastwest;whiteSpace=wrap;html=1;" parent="Dxokil4xpBBhdSCMF68X-37" vertex="1">
          <mxGeometry y="258" width="267" height="26" as="geometry" />
        </mxCell>
        <mxCell id="Dxokil4xpBBhdSCMF68X-188" value="" style="group" parent="1" connectable="0" vertex="1">
          <mxGeometry x="-530" y="-10" width="850" height="560" as="geometry" />
        </mxCell>
        <mxCell id="Dxokil4xpBBhdSCMF68X-187" value="" style="rounded=1;whiteSpace=wrap;html=1;" parent="Dxokil4xpBBhdSCMF68X-188" vertex="1">
          <mxGeometry width="850" height="560" as="geometry" />
        </mxCell>
        <mxCell id="Dxokil4xpBBhdSCMF68X-166" style="rounded=0;orthogonalLoop=1;jettySize=auto;html=1;entryX=0.5;entryY=0;entryDx=0;entryDy=0;strokeColor=default;align=center;verticalAlign=middle;fontFamily=Helvetica;fontSize=11;fontColor=default;labelBackgroundColor=default;jumpSize=13;startSize=15;endArrow=diamondThin;endFill=0;endSize=20;" parent="Dxokil4xpBBhdSCMF68X-188" source="Dxokil4xpBBhdSCMF68X-141" target="Dxokil4xpBBhdSCMF68X-156" edge="1">
          <mxGeometry relative="1" as="geometry" />
        </mxCell>
        <mxCell id="Dxokil4xpBBhdSCMF68X-141" value="User" style="swimlane;fontStyle=1;align=center;verticalAlign=top;childLayout=stackLayout;horizontal=1;startSize=26;horizontalStack=0;resizeParent=1;resizeParentMax=0;resizeLast=0;collapsible=1;marginBottom=0;whiteSpace=wrap;html=1;" parent="Dxokil4xpBBhdSCMF68X-188" vertex="1">
          <mxGeometry x="110" y="50" width="200" height="164" as="geometry" />
        </mxCell>
        <mxCell id="Dxokil4xpBBhdSCMF68X-144" value="- username: str" style="text;strokeColor=none;fillColor=none;align=left;verticalAlign=top;spacingLeft=4;spacingRight=4;overflow=hidden;rotatable=0;points=[[0,0.5],[1,0.5]];portConstraint=eastwest;whiteSpace=wrap;html=1;" parent="Dxokil4xpBBhdSCMF68X-141" vertex="1">
          <mxGeometry y="26" width="200" height="26" as="geometry" />
        </mxCell>
        <mxCell id="Dxokil4xpBBhdSCMF68X-145" value="- gramts: dict" style="text;strokeColor=none;fillColor=none;align=left;verticalAlign=top;spacingLeft=4;spacingRight=4;overflow=hidden;rotatable=0;points=[[0,0.5],[1,0.5]];portConstraint=eastwest;whiteSpace=wrap;html=1;" parent="Dxokil4xpBBhdSCMF68X-141" vertex="1">
          <mxGeometry y="52" width="200" height="26" as="geometry" />
        </mxCell>
        <mxCell id="Dxokil4xpBBhdSCMF68X-233" value="- email: str" style="text;strokeColor=none;fillColor=none;align=left;verticalAlign=top;spacingLeft=4;spacingRight=4;overflow=hidden;rotatable=0;points=[[0,0.5],[1,0.5]];portConstraint=eastwest;whiteSpace=wrap;html=1;" parent="Dxokil4xpBBhdSCMF68X-141" vertex="1">
          <mxGeometry y="78" width="200" height="26" as="geometry" />
        </mxCell>
        <mxCell id="Dxokil4xpBBhdSCMF68X-142" value="" style="line;strokeWidth=1;fillColor=none;align=left;verticalAlign=middle;spacingTop=-1;spacingLeft=3;spacingRight=3;rotatable=0;labelPosition=right;points=[];portConstraint=eastwest;strokeColor=inherit;" parent="Dxokil4xpBBhdSCMF68X-141" vertex="1">
          <mxGeometry y="104" width="200" height="8" as="geometry" />
        </mxCell>
        <mxCell id="Dxokil4xpBBhdSCMF68X-143" value="+ is_grant(grant): bool" style="text;strokeColor=none;fillColor=none;align=left;verticalAlign=top;spacingLeft=4;spacingRight=4;overflow=hidden;rotatable=0;points=[[0,0.5],[1,0.5]];portConstraint=eastwest;whiteSpace=wrap;html=1;" parent="Dxokil4xpBBhdSCMF68X-141" vertex="1">
          <mxGeometry y="112" width="200" height="26" as="geometry" />
        </mxCell>
        <mxCell id="Dxokil4xpBBhdSCMF68X-231" value="+ update(msg)" style="text;strokeColor=none;fillColor=none;align=left;verticalAlign=top;spacingLeft=4;spacingRight=4;overflow=hidden;rotatable=0;points=[[0,0.5],[1,0.5]];portConstraint=eastwest;whiteSpace=wrap;html=1;" parent="Dxokil4xpBBhdSCMF68X-141" vertex="1">
          <mxGeometry y="138" width="200" height="26" as="geometry" />
        </mxCell>
        <mxCell id="Dxokil4xpBBhdSCMF68X-167" style="rounded=0;orthogonalLoop=1;jettySize=auto;html=1;strokeColor=default;align=center;verticalAlign=middle;fontFamily=Helvetica;fontSize=11;fontColor=default;labelBackgroundColor=default;jumpSize=13;startSize=15;endArrow=diamondThin;endFill=0;endSize=20;" parent="Dxokil4xpBBhdSCMF68X-188" source="Dxokil4xpBBhdSCMF68X-151" target="Dxokil4xpBBhdSCMF68X-156" edge="1">
          <mxGeometry relative="1" as="geometry" />
        </mxCell>
        <mxCell id="Dxokil4xpBBhdSCMF68X-151" value="Authentication" style="swimlane;fontStyle=1;align=center;verticalAlign=top;childLayout=stackLayout;horizontal=1;startSize=26;horizontalStack=0;resizeParent=1;resizeParentMax=0;resizeLast=0;collapsible=1;marginBottom=0;whiteSpace=wrap;html=1;" parent="Dxokil4xpBBhdSCMF68X-188" vertex="1">
          <mxGeometry x="400" y="112" width="263" height="60" as="geometry" />
        </mxCell>
        <mxCell id="Dxokil4xpBBhdSCMF68X-154" value="" style="line;strokeWidth=1;fillColor=none;align=left;verticalAlign=middle;spacingTop=-1;spacingLeft=3;spacingRight=3;rotatable=0;labelPosition=right;points=[];portConstraint=eastwest;strokeColor=inherit;" parent="Dxokil4xpBBhdSCMF68X-151" vertex="1">
          <mxGeometry y="26" width="263" height="8" as="geometry" />
        </mxCell>
        <mxCell id="Dxokil4xpBBhdSCMF68X-155" value="+ login(username, password): grants" style="text;strokeColor=none;fillColor=none;align=left;verticalAlign=top;spacingLeft=4;spacingRight=4;overflow=hidden;rotatable=0;points=[[0,0.5],[1,0.5]];portConstraint=eastwest;whiteSpace=wrap;html=1;" parent="Dxokil4xpBBhdSCMF68X-151" vertex="1">
          <mxGeometry y="34" width="263" height="26" as="geometry" />
        </mxCell>
        <mxCell id="Dxokil4xpBBhdSCMF68X-156" value="Main" style="swimlane;fontStyle=1;align=center;verticalAlign=top;childLayout=stackLayout;horizontal=1;startSize=26;horizontalStack=0;resizeParent=1;resizeParentMax=0;resizeLast=0;collapsible=1;marginBottom=0;whiteSpace=wrap;html=1;" parent="Dxokil4xpBBhdSCMF68X-188" vertex="1">
          <mxGeometry x="80" y="257" width="400" height="242" as="geometry" />
        </mxCell>
        <mxCell id="Dxokil4xpBBhdSCMF68X-236" value="+ cache(): listVehicle" style="text;align=left;verticalAlign=top;spacingLeft=4;spacingRight=4;overflow=hidden;rotatable=0;points=[[0,0.5],[1,0.5]];portConstraint=eastwest;whiteSpace=wrap;html=1;" parent="Dxokil4xpBBhdSCMF68X-156" vertex="1">
          <mxGeometry y="26" width="400" height="26" as="geometry" />
        </mxCell>
        <mxCell id="Dxokil4xpBBhdSCMF68X-159" value="" style="line;strokeWidth=1;fillColor=none;align=left;verticalAlign=middle;spacingTop=-1;spacingLeft=3;spacingRight=3;rotatable=0;labelPosition=right;points=[];portConstraint=eastwest;strokeColor=inherit;" parent="Dxokil4xpBBhdSCMF68X-156" vertex="1">
          <mxGeometry y="52" width="400" height="8" as="geometry" />
        </mxCell>
        <mxCell id="Dxokil4xpBBhdSCMF68X-161" value="+ login(username, password): grants" style="text;strokeColor=none;fillColor=none;align=left;verticalAlign=top;spacingLeft=4;spacingRight=4;overflow=hidden;rotatable=0;points=[[0,0.5],[1,0.5]];portConstraint=eastwest;whiteSpace=wrap;html=1;" parent="Dxokil4xpBBhdSCMF68X-156" vertex="1">
          <mxGeometry y="60" width="400" height="26" as="geometry" />
        </mxCell>
        <mxCell id="Dxokil4xpBBhdSCMF68X-160" value="+ get_all_vehicles(): listVehicle" style="text;strokeColor=none;fillColor=none;align=left;verticalAlign=top;spacingLeft=4;spacingRight=4;overflow=hidden;rotatable=0;points=[[0,0.5],[1,0.5]];portConstraint=eastwest;whiteSpace=wrap;html=1;" parent="Dxokil4xpBBhdSCMF68X-156" vertex="1">
          <mxGeometry y="86" width="400" height="26" as="geometry" />
        </mxCell>
        <mxCell id="Dxokil4xpBBhdSCMF68X-162" value="+ get_by_speed(): None" style="text;strokeColor=none;fillColor=none;align=left;verticalAlign=top;spacingLeft=4;spacingRight=4;overflow=hidden;rotatable=0;points=[[0,0.5],[1,0.5]];portConstraint=eastwest;whiteSpace=wrap;html=1;" parent="Dxokil4xpBBhdSCMF68X-156" vertex="1">
          <mxGeometry y="112" width="400" height="26" as="geometry" />
        </mxCell>
        <mxCell id="Dxokil4xpBBhdSCMF68X-163" value="+ get_price_by_range(min,max): listVehicle" style="text;strokeColor=none;fillColor=none;align=left;verticalAlign=top;spacingLeft=4;spacingRight=4;overflow=hidden;rotatable=0;points=[[0,0.5],[1,0.5]];portConstraint=eastwest;whiteSpace=wrap;html=1;" parent="Dxokil4xpBBhdSCMF68X-156" vertex="1">
          <mxGeometry y="138" width="400" height="26" as="geometry" />
        </mxCell>
        <mxCell id="Dxokil4xpBBhdSCMF68X-164" value="+ add_vehicle(attr_vehicles): listVehicle" style="text;strokeColor=none;fillColor=none;align=left;verticalAlign=top;spacingLeft=4;spacingRight=4;overflow=hidden;rotatable=0;points=[[0,0.5],[1,0.5]];portConstraint=eastwest;whiteSpace=wrap;html=1;" parent="Dxokil4xpBBhdSCMF68X-156" vertex="1">
          <mxGeometry y="164" width="400" height="26" as="geometry" />
        </mxCell>
        <mxCell id="Dxokil4xpBBhdSCMF68X-165" value="+ delete_vehicle(model): bool" style="text;strokeColor=none;fillColor=none;align=left;verticalAlign=top;spacingLeft=4;spacingRight=4;overflow=hidden;rotatable=0;points=[[0,0.5],[1,0.5]];portConstraint=eastwest;whiteSpace=wrap;html=1;" parent="Dxokil4xpBBhdSCMF68X-156" vertex="1">
          <mxGeometry y="190" width="400" height="26" as="geometry" />
        </mxCell>
        <mxCell id="Dxokil4xpBBhdSCMF68X-237" value="+ getCache(): listVehicle" style="text;align=left;verticalAlign=top;spacingLeft=4;spacingRight=4;overflow=hidden;rotatable=0;points=[[0,0.5],[1,0.5]];portConstraint=eastwest;whiteSpace=wrap;html=1;" parent="Dxokil4xpBBhdSCMF68X-156" vertex="1">
          <mxGeometry y="216" width="400" height="26" as="geometry" />
        </mxCell>
        <mxCell id="Dxokil4xpBBhdSCMF68X-168" value="CatalogProxy" style="swimlane;fontStyle=1;align=center;verticalAlign=top;childLayout=stackLayout;horizontal=1;startSize=27;horizontalStack=0;resizeParent=1;resizeParentMax=0;resizeLast=0;collapsible=1;marginBottom=0;whiteSpace=wrap;html=1;" parent="Dxokil4xpBBhdSCMF68X-188" vertex="1">
          <mxGeometry x="570" y="285" width="250" height="243" as="geometry" />
        </mxCell>
        <mxCell id="Dxokil4xpBBhdSCMF68X-170" value="- catalog: Catalog" style="text;strokeColor=none;fillColor=none;align=left;verticalAlign=top;spacingLeft=4;spacingRight=4;overflow=hidden;rotatable=0;points=[[0,0.5],[1,0.5]];portConstraint=eastwest;whiteSpace=wrap;html=1;" parent="Dxokil4xpBBhdSCMF68X-168" vertex="1">
          <mxGeometry y="27" width="250" height="26" as="geometry" />
        </mxCell>
        <mxCell id="Dxokil4xpBBhdSCMF68X-169" value="" style="line;strokeWidth=1;fillColor=none;align=left;verticalAlign=middle;spacingTop=-1;spacingLeft=3;spacingRight=3;rotatable=0;labelPosition=right;points=[];portConstraint=eastwest;strokeColor=inherit;" parent="Dxokil4xpBBhdSCMF68X-168" vertex="1">
          <mxGeometry y="53" width="250" height="8" as="geometry" />
        </mxCell>
        <mxCell id="Dxokil4xpBBhdSCMF68X-175" value="+ get_all_vehicles(): listVehicle" style="text;strokeColor=none;fillColor=none;align=left;verticalAlign=top;spacingLeft=4;spacingRight=4;overflow=hidden;rotatable=0;points=[[0,0.5],[1,0.5]];portConstraint=eastwest;whiteSpace=wrap;html=1;" parent="Dxokil4xpBBhdSCMF68X-168" vertex="1">
          <mxGeometry y="61" width="250" height="26" as="geometry" />
        </mxCell>
        <mxCell id="Dxokil4xpBBhdSCMF68X-173" value="+ add_vehicle(attr_vehicles): listVehicle" style="text;strokeColor=none;fillColor=none;align=left;verticalAlign=top;spacingLeft=4;spacingRight=4;overflow=hidden;rotatable=0;points=[[0,0.5],[1,0.5]];portConstraint=eastwest;whiteSpace=wrap;html=1;" parent="Dxokil4xpBBhdSCMF68X-168" vertex="1">
          <mxGeometry y="87" width="250" height="26" as="geometry" />
        </mxCell>
        <mxCell id="Dxokil4xpBBhdSCMF68X-174" value="+ delete_vehicle(attr_vehicles): bool" style="text;strokeColor=none;fillColor=none;align=left;verticalAlign=top;spacingLeft=4;spacingRight=4;overflow=hidden;rotatable=0;points=[[0,0.5],[1,0.5]];portConstraint=eastwest;whiteSpace=wrap;html=1;" parent="Dxokil4xpBBhdSCMF68X-168" vertex="1">
          <mxGeometry y="113" width="250" height="26" as="geometry" />
        </mxCell>
        <mxCell id="Dxokil4xpBBhdSCMF68X-172" value="+ get_by_price(min,max): listVehicle" style="text;strokeColor=none;fillColor=none;align=left;verticalAlign=top;spacingLeft=4;spacingRight=4;overflow=hidden;rotatable=0;points=[[0,0.5],[1,0.5]];portConstraint=eastwest;whiteSpace=wrap;html=1;" parent="Dxokil4xpBBhdSCMF68X-168" vertex="1">
          <mxGeometry y="139" width="250" height="26" as="geometry" />
        </mxCell>
        <mxCell id="Dxokil4xpBBhdSCMF68X-239" value="+ get_by_speed(min,max): listVehicle" style="text;strokeColor=none;fillColor=none;align=left;verticalAlign=top;spacingLeft=4;spacingRight=4;overflow=hidden;rotatable=0;points=[[0,0.5],[1,0.5]];portConstraint=eastwest;whiteSpace=wrap;html=1;" parent="Dxokil4xpBBhdSCMF68X-168" vertex="1">
          <mxGeometry y="165" width="250" height="26" as="geometry" />
        </mxCell>
        <mxCell id="_1mNYhcjkhpTGn96oXOm-1" value="+ get_list_of_vehicles: listVehicle" style="text;strokeColor=none;fillColor=none;align=left;verticalAlign=top;spacingLeft=4;spacingRight=4;overflow=hidden;rotatable=0;points=[[0,0.5],[1,0.5]];portConstraint=eastwest;whiteSpace=wrap;html=1;" vertex="1" parent="Dxokil4xpBBhdSCMF68X-168">
          <mxGeometry y="191" width="250" height="26" as="geometry" />
        </mxCell>
        <mxCell id="Dxokil4xpBBhdSCMF68X-171" value="+ undo_remove(): listVehicle" style="text;strokeColor=none;fillColor=none;align=left;verticalAlign=top;spacingLeft=4;spacingRight=4;overflow=hidden;rotatable=0;points=[[0,0.5],[1,0.5]];portConstraint=eastwest;whiteSpace=wrap;html=1;" parent="Dxokil4xpBBhdSCMF68X-168" vertex="1">
          <mxGeometry y="217" width="250" height="26" as="geometry" />
        </mxCell>
        <mxCell id="Dxokil4xpBBhdSCMF68X-176" value="" style="rounded=0;orthogonalLoop=1;jettySize=auto;html=1;strokeColor=default;align=center;verticalAlign=middle;fontFamily=Helvetica;fontSize=11;fontColor=default;labelBackgroundColor=default;jumpSize=13;startSize=15;endArrow=diamondThin;endFill=0;endSize=20;" parent="Dxokil4xpBBhdSCMF68X-188" source="Dxokil4xpBBhdSCMF68X-173" target="Dxokil4xpBBhdSCMF68X-163" edge="1">
          <mxGeometry relative="1" as="geometry" />
        </mxCell>
        <mxCell id="Dxokil4xpBBhdSCMF68X-177" style="edgeStyle=orthogonalEdgeStyle;rounded=0;orthogonalLoop=1;jettySize=auto;html=1;exitX=0.75;exitY=0;exitDx=0;exitDy=0;entryX=0.25;entryY=0;entryDx=0;entryDy=0;curved=1;" parent="Dxokil4xpBBhdSCMF68X-188" source="Dxokil4xpBBhdSCMF68X-168" target="Dxokil4xpBBhdSCMF68X-168" edge="1">
          <mxGeometry relative="1" as="geometry">
            <Array as="points">
              <mxPoint x="760" y="285" />
              <mxPoint x="760" y="240" />
              <mxPoint x="633" y="240" />
            </Array>
          </mxGeometry>
        </mxCell>
        <mxCell id="Dxokil4xpBBhdSCMF68X-190" value="" style="group" parent="1" connectable="0" vertex="1">
          <mxGeometry x="370" y="-30" width="740" height="790" as="geometry" />
        </mxCell>
        <mxCell id="Dxokil4xpBBhdSCMF68X-189" value="" style="rounded=1;whiteSpace=wrap;html=1;" parent="Dxokil4xpBBhdSCMF68X-190" vertex="1">
          <mxGeometry width="740" height="790" as="geometry" />
        </mxCell>
        <mxCell id="Dxokil4xpBBhdSCMF68X-181" style="rounded=0;orthogonalLoop=1;jettySize=auto;html=1;entryX=0.5;entryY=0;entryDx=0;entryDy=0;dashed=1;strokeColor=default;align=center;verticalAlign=middle;fontFamily=Helvetica;fontSize=11;fontColor=default;labelBackgroundColor=default;jumpSize=13;startSize=15;endArrow=block;endFill=0;endSize=14;" parent="Dxokil4xpBBhdSCMF68X-190" source="5RCuEXMcA8dU4Bn4oob3-16" target="Dxokil4xpBBhdSCMF68X-4" edge="1">
          <mxGeometry relative="1" as="geometry" />
        </mxCell>
        <mxCell id="5RCuEXMcA8dU4Bn4oob3-16" value="MemoryPerformanceDecorator" style="swimlane;fontStyle=1;align=center;verticalAlign=top;childLayout=stackLayout;horizontal=1;startSize=26;horizontalStack=0;resizeParent=1;resizeParentMax=0;resizeLast=0;collapsible=1;marginBottom=0;whiteSpace=wrap;html=1;" parent="Dxokil4xpBBhdSCMF68X-190" vertex="1">
          <mxGeometry x="230" y="40" width="250" height="216" as="geometry" />
        </mxCell>
        <mxCell id="5RCuEXMcA8dU4Bn4oob3-8" value="- catalog: Catalog" style="text;strokeColor=none;fillColor=none;align=left;verticalAlign=top;spacingLeft=4;spacingRight=4;overflow=hidden;rotatable=0;points=[[0,0.5],[1,0.5]];portConstraint=eastwest;whiteSpace=wrap;html=1;" parent="5RCuEXMcA8dU4Bn4oob3-16" vertex="1">
          <mxGeometry y="26" width="250" height="26" as="geometry" />
        </mxCell>
        <mxCell id="5RCuEXMcA8dU4Bn4oob3-18" value="" style="line;strokeWidth=1;fillColor=none;align=left;verticalAlign=middle;spacingTop=-1;spacingLeft=3;spacingRight=3;rotatable=0;labelPosition=right;points=[];portConstraint=eastwest;strokeColor=inherit;" parent="5RCuEXMcA8dU4Bn4oob3-16" vertex="1">
          <mxGeometry y="52" width="250" height="8" as="geometry" />
        </mxCell>
        <mxCell id="5RCuEXMcA8dU4Bn4oob3-9" value="+ get_all_vehicles(): listVehicle" style="text;strokeColor=none;fillColor=none;align=left;verticalAlign=top;spacingLeft=4;spacingRight=4;overflow=hidden;rotatable=0;points=[[0,0.5],[1,0.5]];portConstraint=eastwest;whiteSpace=wrap;html=1;" parent="5RCuEXMcA8dU4Bn4oob3-16" vertex="1">
          <mxGeometry y="60" width="250" height="26" as="geometry" />
        </mxCell>
        <mxCell id="5RCuEXMcA8dU4Bn4oob3-20" value="+ get_by_speed(min,max): listVehicle" style="text;strokeColor=none;fillColor=none;align=left;verticalAlign=top;spacingLeft=4;spacingRight=4;overflow=hidden;rotatable=0;points=[[0,0.5],[1,0.5]];portConstraint=eastwest;whiteSpace=wrap;html=1;" parent="5RCuEXMcA8dU4Bn4oob3-16" vertex="1">
          <mxGeometry y="86" width="250" height="26" as="geometry" />
        </mxCell>
        <mxCell id="Dxokil4xpBBhdSCMF68X-1" value="+ get_by_price(min,max): listVehicle" style="text;strokeColor=none;fillColor=none;align=left;verticalAlign=top;spacingLeft=4;spacingRight=4;overflow=hidden;rotatable=0;points=[[0,0.5],[1,0.5]];portConstraint=eastwest;whiteSpace=wrap;html=1;" parent="5RCuEXMcA8dU4Bn4oob3-16" vertex="1">
          <mxGeometry y="112" width="250" height="26" as="geometry" />
        </mxCell>
        <mxCell id="Dxokil4xpBBhdSCMF68X-2" value="+ add_vehicle(attr_vehicles): listVehicle" style="text;strokeColor=none;fillColor=none;align=left;verticalAlign=top;spacingLeft=4;spacingRight=4;overflow=hidden;rotatable=0;points=[[0,0.5],[1,0.5]];portConstraint=eastwest;whiteSpace=wrap;html=1;" parent="5RCuEXMcA8dU4Bn4oob3-16" vertex="1">
          <mxGeometry y="138" width="250" height="26" as="geometry" />
        </mxCell>
        <mxCell id="Dxokil4xpBBhdSCMF68X-3" value="+ delete_vehicle(attr_vehicles): bool" style="text;strokeColor=none;fillColor=none;align=left;verticalAlign=top;spacingLeft=4;spacingRight=4;overflow=hidden;rotatable=0;points=[[0,0.5],[1,0.5]];portConstraint=eastwest;whiteSpace=wrap;html=1;" parent="5RCuEXMcA8dU4Bn4oob3-16" vertex="1">
          <mxGeometry y="164" width="250" height="26" as="geometry" />
        </mxCell>
        <mxCell id="Dxokil4xpBBhdSCMF68X-242" value="+ undo_delete(): listVehicle" style="text;strokeColor=none;fillColor=none;align=left;verticalAlign=top;spacingLeft=4;spacingRight=4;overflow=hidden;rotatable=0;points=[[0,0.5],[1,0.5]];portConstraint=eastwest;whiteSpace=wrap;html=1;" parent="5RCuEXMcA8dU4Bn4oob3-16" vertex="1">
          <mxGeometry y="190" width="250" height="26" as="geometry" />
        </mxCell>
        <mxCell id="Dxokil4xpBBhdSCMF68X-182" style="rounded=0;orthogonalLoop=1;jettySize=auto;html=1;exitX=0.75;exitY=0;exitDx=0;exitDy=0;endArrow=diamondThin;endFill=1;endSize=15;" parent="Dxokil4xpBBhdSCMF68X-190" source="Dxokil4xpBBhdSCMF68X-4" target="5RCuEXMcA8dU4Bn4oob3-16" edge="1">
          <mxGeometry relative="1" as="geometry" />
        </mxCell>
        <mxCell id="Dxokil4xpBBhdSCMF68X-4" value="Catalog&lt;br&gt;&amp;lt;&amp;lt;interface&amp;gt;&amp;gt;" style="swimlane;fontStyle=1;align=center;verticalAlign=top;childLayout=stackLayout;horizontal=1;startSize=40;horizontalStack=0;resizeParent=1;resizeParentMax=0;resizeLast=0;collapsible=1;marginBottom=0;whiteSpace=wrap;html=1;" parent="Dxokil4xpBBhdSCMF68X-190" vertex="1">
          <mxGeometry x="30" y="301" width="250" height="204" as="geometry" />
        </mxCell>
        <mxCell id="Dxokil4xpBBhdSCMF68X-6" value="" style="line;strokeWidth=1;fillColor=none;align=left;verticalAlign=middle;spacingTop=-1;spacingLeft=3;spacingRight=3;rotatable=0;labelPosition=right;points=[];portConstraint=eastwest;strokeColor=inherit;" parent="Dxokil4xpBBhdSCMF68X-4" vertex="1">
          <mxGeometry y="40" width="250" height="8" as="geometry" />
        </mxCell>
        <mxCell id="Dxokil4xpBBhdSCMF68X-7" value="+ get_all_vehicles(): listVehicle" style="text;strokeColor=none;fillColor=none;align=left;verticalAlign=top;spacingLeft=4;spacingRight=4;overflow=hidden;rotatable=0;points=[[0,0.5],[1,0.5]];portConstraint=eastwest;whiteSpace=wrap;html=1;" parent="Dxokil4xpBBhdSCMF68X-4" vertex="1">
          <mxGeometry y="48" width="250" height="26" as="geometry" />
        </mxCell>
        <mxCell id="Dxokil4xpBBhdSCMF68X-8" value="+ get_by_speed(min,max): listVehicle" style="text;strokeColor=none;fillColor=none;align=left;verticalAlign=top;spacingLeft=4;spacingRight=4;overflow=hidden;rotatable=0;points=[[0,0.5],[1,0.5]];portConstraint=eastwest;whiteSpace=wrap;html=1;" parent="Dxokil4xpBBhdSCMF68X-4" vertex="1">
          <mxGeometry y="74" width="250" height="26" as="geometry" />
        </mxCell>
        <mxCell id="Dxokil4xpBBhdSCMF68X-9" value="+ get_by_price(min,max): listVehicle" style="text;strokeColor=none;fillColor=none;align=left;verticalAlign=top;spacingLeft=4;spacingRight=4;overflow=hidden;rotatable=0;points=[[0,0.5],[1,0.5]];portConstraint=eastwest;whiteSpace=wrap;html=1;" parent="Dxokil4xpBBhdSCMF68X-4" vertex="1">
          <mxGeometry y="100" width="250" height="26" as="geometry" />
        </mxCell>
        <mxCell id="Dxokil4xpBBhdSCMF68X-10" value="+ add_vehicle(attr_vehicles): listVehicle" style="text;strokeColor=none;fillColor=none;align=left;verticalAlign=top;spacingLeft=4;spacingRight=4;overflow=hidden;rotatable=0;points=[[0,0.5],[1,0.5]];portConstraint=eastwest;whiteSpace=wrap;html=1;" parent="Dxokil4xpBBhdSCMF68X-4" vertex="1">
          <mxGeometry y="126" width="250" height="26" as="geometry" />
        </mxCell>
        <mxCell id="Dxokil4xpBBhdSCMF68X-11" value="+ delete_vehicle(attr_vehicles): bool" style="text;strokeColor=none;fillColor=none;align=left;verticalAlign=top;spacingLeft=4;spacingRight=4;overflow=hidden;rotatable=0;points=[[0,0.5],[1,0.5]];portConstraint=eastwest;whiteSpace=wrap;html=1;" parent="Dxokil4xpBBhdSCMF68X-4" vertex="1">
          <mxGeometry y="152" width="250" height="26" as="geometry" />
        </mxCell>
        <mxCell id="Dxokil4xpBBhdSCMF68X-241" value="+ undo_delete(): listVehicle" style="text;strokeColor=none;fillColor=none;align=left;verticalAlign=top;spacingLeft=4;spacingRight=4;overflow=hidden;rotatable=0;points=[[0,0.5],[1,0.5]];portConstraint=eastwest;whiteSpace=wrap;html=1;" parent="Dxokil4xpBBhdSCMF68X-4" vertex="1">
          <mxGeometry y="178" width="250" height="26" as="geometry" />
        </mxCell>
        <mxCell id="Dxokil4xpBBhdSCMF68X-12" value="TimePerformanceDecorator" style="swimlane;fontStyle=1;align=center;verticalAlign=top;childLayout=stackLayout;horizontal=1;startSize=26;horizontalStack=0;resizeParent=1;resizeParentMax=0;resizeLast=0;collapsible=1;marginBottom=0;whiteSpace=wrap;html=1;" parent="Dxokil4xpBBhdSCMF68X-190" vertex="1">
          <mxGeometry x="457" y="290" width="250" height="216" as="geometry" />
        </mxCell>
        <mxCell id="Dxokil4xpBBhdSCMF68X-13" value="- catalog: Catalog" style="text;strokeColor=none;fillColor=none;align=left;verticalAlign=top;spacingLeft=4;spacingRight=4;overflow=hidden;rotatable=0;points=[[0,0.5],[1,0.5]];portConstraint=eastwest;whiteSpace=wrap;html=1;" parent="Dxokil4xpBBhdSCMF68X-12" vertex="1">
          <mxGeometry y="26" width="250" height="26" as="geometry" />
        </mxCell>
        <mxCell id="Dxokil4xpBBhdSCMF68X-14" value="" style="line;strokeWidth=1;fillColor=none;align=left;verticalAlign=middle;spacingTop=-1;spacingLeft=3;spacingRight=3;rotatable=0;labelPosition=right;points=[];portConstraint=eastwest;strokeColor=inherit;" parent="Dxokil4xpBBhdSCMF68X-12" vertex="1">
          <mxGeometry y="52" width="250" height="8" as="geometry" />
        </mxCell>
        <mxCell id="Dxokil4xpBBhdSCMF68X-15" value="+ get_all_vehicles(): listVehicle" style="text;strokeColor=none;fillColor=none;align=left;verticalAlign=top;spacingLeft=4;spacingRight=4;overflow=hidden;rotatable=0;points=[[0,0.5],[1,0.5]];portConstraint=eastwest;whiteSpace=wrap;html=1;" parent="Dxokil4xpBBhdSCMF68X-12" vertex="1">
          <mxGeometry y="60" width="250" height="26" as="geometry" />
        </mxCell>
        <mxCell id="Dxokil4xpBBhdSCMF68X-16" value="+ get_by_speed(min,max): listVehicle" style="text;strokeColor=none;fillColor=none;align=left;verticalAlign=top;spacingLeft=4;spacingRight=4;overflow=hidden;rotatable=0;points=[[0,0.5],[1,0.5]];portConstraint=eastwest;whiteSpace=wrap;html=1;" parent="Dxokil4xpBBhdSCMF68X-12" vertex="1">
          <mxGeometry y="86" width="250" height="26" as="geometry" />
        </mxCell>
        <mxCell id="Dxokil4xpBBhdSCMF68X-17" value="+ get_by_price(min,max): listVehicle" style="text;strokeColor=none;fillColor=none;align=left;verticalAlign=top;spacingLeft=4;spacingRight=4;overflow=hidden;rotatable=0;points=[[0,0.5],[1,0.5]];portConstraint=eastwest;whiteSpace=wrap;html=1;" parent="Dxokil4xpBBhdSCMF68X-12" vertex="1">
          <mxGeometry y="112" width="250" height="26" as="geometry" />
        </mxCell>
        <mxCell id="Dxokil4xpBBhdSCMF68X-18" value="+ add_vehicle(attr_vehicles): listVehicle" style="text;strokeColor=none;fillColor=none;align=left;verticalAlign=top;spacingLeft=4;spacingRight=4;overflow=hidden;rotatable=0;points=[[0,0.5],[1,0.5]];portConstraint=eastwest;whiteSpace=wrap;html=1;" parent="Dxokil4xpBBhdSCMF68X-12" vertex="1">
          <mxGeometry y="138" width="250" height="26" as="geometry" />
        </mxCell>
        <mxCell id="Dxokil4xpBBhdSCMF68X-19" value="+ delete_vehicle(attr_vehicles): bool" style="text;strokeColor=none;fillColor=none;align=left;verticalAlign=top;spacingLeft=4;spacingRight=4;overflow=hidden;rotatable=0;points=[[0,0.5],[1,0.5]];portConstraint=eastwest;whiteSpace=wrap;html=1;" parent="Dxokil4xpBBhdSCMF68X-12" vertex="1">
          <mxGeometry y="164" width="250" height="26" as="geometry" />
        </mxCell>
        <mxCell id="Dxokil4xpBBhdSCMF68X-243" value="+ undo_delete(): listVehicle" style="text;strokeColor=none;fillColor=none;align=left;verticalAlign=top;spacingLeft=4;spacingRight=4;overflow=hidden;rotatable=0;points=[[0,0.5],[1,0.5]];portConstraint=eastwest;whiteSpace=wrap;html=1;" parent="Dxokil4xpBBhdSCMF68X-12" vertex="1">
          <mxGeometry y="190" width="250" height="26" as="geometry" />
        </mxCell>
        <mxCell id="Dxokil4xpBBhdSCMF68X-178" style="rounded=0;orthogonalLoop=1;jettySize=auto;html=1;dashed=1;endArrow=block;endFill=0;strokeColor=default;align=center;verticalAlign=middle;fontFamily=Helvetica;fontSize=11;fontColor=default;labelBackgroundColor=default;jumpSize=13;startSize=15;endSize=14;" parent="Dxokil4xpBBhdSCMF68X-190" source="Dxokil4xpBBhdSCMF68X-20" target="Dxokil4xpBBhdSCMF68X-4" edge="1">
          <mxGeometry relative="1" as="geometry" />
        </mxCell>
        <mxCell id="Dxokil4xpBBhdSCMF68X-20" value="CatalogConcrete" style="swimlane;fontStyle=1;align=center;verticalAlign=top;childLayout=stackLayout;horizontal=1;startSize=26;horizontalStack=0;resizeParent=1;resizeParentMax=0;resizeLast=0;collapsible=1;marginBottom=0;whiteSpace=wrap;html=1;" parent="Dxokil4xpBBhdSCMF68X-190" vertex="1">
          <mxGeometry x="90" y="540" width="250" height="216" as="geometry" />
        </mxCell>
        <mxCell id="Dxokil4xpBBhdSCMF68X-21" value="- vehicles: ListVehicle" style="text;strokeColor=none;fillColor=none;align=left;verticalAlign=top;spacingLeft=4;spacingRight=4;overflow=hidden;rotatable=0;points=[[0,0.5],[1,0.5]];portConstraint=eastwest;whiteSpace=wrap;html=1;" parent="Dxokil4xpBBhdSCMF68X-20" vertex="1">
          <mxGeometry y="26" width="250" height="26" as="geometry" />
        </mxCell>
        <mxCell id="Dxokil4xpBBhdSCMF68X-22" value="" style="line;strokeWidth=1;fillColor=none;align=left;verticalAlign=middle;spacingTop=-1;spacingLeft=3;spacingRight=3;rotatable=0;labelPosition=right;points=[];portConstraint=eastwest;strokeColor=inherit;" parent="Dxokil4xpBBhdSCMF68X-20" vertex="1">
          <mxGeometry y="52" width="250" height="8" as="geometry" />
        </mxCell>
        <mxCell id="Dxokil4xpBBhdSCMF68X-23" value="+ get_all_vehicles(): listVehicle" style="text;strokeColor=none;fillColor=none;align=left;verticalAlign=top;spacingLeft=4;spacingRight=4;overflow=hidden;rotatable=0;points=[[0,0.5],[1,0.5]];portConstraint=eastwest;whiteSpace=wrap;html=1;" parent="Dxokil4xpBBhdSCMF68X-20" vertex="1">
          <mxGeometry y="60" width="250" height="26" as="geometry" />
        </mxCell>
        <mxCell id="Dxokil4xpBBhdSCMF68X-24" value="+ get_by_speed(): None" style="text;strokeColor=none;fillColor=none;align=left;verticalAlign=top;spacingLeft=4;spacingRight=4;overflow=hidden;rotatable=0;points=[[0,0.5],[1,0.5]];portConstraint=eastwest;whiteSpace=wrap;html=1;" parent="Dxokil4xpBBhdSCMF68X-20" vertex="1">
          <mxGeometry y="86" width="250" height="26" as="geometry" />
        </mxCell>
        <mxCell id="Dxokil4xpBBhdSCMF68X-25" value="+ get_price_by_range(min,max): listVehicle" style="text;strokeColor=none;fillColor=none;align=left;verticalAlign=top;spacingLeft=4;spacingRight=4;overflow=hidden;rotatable=0;points=[[0,0.5],[1,0.5]];portConstraint=eastwest;whiteSpace=wrap;html=1;" parent="Dxokil4xpBBhdSCMF68X-20" vertex="1">
          <mxGeometry y="112" width="250" height="26" as="geometry" />
        </mxCell>
        <mxCell id="Dxokil4xpBBhdSCMF68X-26" value="+ add_vehicle(attr_vehicles): listVehicle" style="text;strokeColor=none;fillColor=none;align=left;verticalAlign=top;spacingLeft=4;spacingRight=4;overflow=hidden;rotatable=0;points=[[0,0.5],[1,0.5]];portConstraint=eastwest;whiteSpace=wrap;html=1;" parent="Dxokil4xpBBhdSCMF68X-20" vertex="1">
          <mxGeometry y="138" width="250" height="26" as="geometry" />
        </mxCell>
        <mxCell id="Dxokil4xpBBhdSCMF68X-27" value="+ delete_vehicle(attr_vehicles): bool" style="text;strokeColor=none;fillColor=none;align=left;verticalAlign=top;spacingLeft=4;spacingRight=4;overflow=hidden;rotatable=0;points=[[0,0.5],[1,0.5]];portConstraint=eastwest;whiteSpace=wrap;html=1;" parent="Dxokil4xpBBhdSCMF68X-20" vertex="1">
          <mxGeometry y="164" width="250" height="26" as="geometry" />
        </mxCell>
        <mxCell id="Dxokil4xpBBhdSCMF68X-240" value="+ undo_delete(): listVehicle" style="text;strokeColor=none;fillColor=none;align=left;verticalAlign=top;spacingLeft=4;spacingRight=4;overflow=hidden;rotatable=0;points=[[0,0.5],[1,0.5]];portConstraint=eastwest;whiteSpace=wrap;html=1;" parent="Dxokil4xpBBhdSCMF68X-20" vertex="1">
          <mxGeometry y="190" width="250" height="26" as="geometry" />
        </mxCell>
        <mxCell id="Dxokil4xpBBhdSCMF68X-179" style="edgeStyle=orthogonalEdgeStyle;rounded=0;orthogonalLoop=1;jettySize=auto;html=1;entryX=1;entryY=0.5;entryDx=0;entryDy=0;dashed=1;strokeColor=default;align=center;verticalAlign=middle;fontFamily=Helvetica;fontSize=11;fontColor=default;labelBackgroundColor=default;jumpSize=13;startSize=15;endArrow=block;endFill=0;endSize=14;" parent="Dxokil4xpBBhdSCMF68X-190" source="Dxokil4xpBBhdSCMF68X-16" target="Dxokil4xpBBhdSCMF68X-8" edge="1">
          <mxGeometry relative="1" as="geometry" />
        </mxCell>
        <mxCell id="Dxokil4xpBBhdSCMF68X-180" value="" style="edgeStyle=orthogonalEdgeStyle;rounded=0;orthogonalLoop=1;jettySize=auto;html=1;entryX=0;entryY=0.5;entryDx=0;entryDy=0;endArrow=diamondThin;endFill=1;endSize=15;" parent="Dxokil4xpBBhdSCMF68X-190" source="Dxokil4xpBBhdSCMF68X-10" target="Dxokil4xpBBhdSCMF68X-18" edge="1">
          <mxGeometry relative="1" as="geometry" />
        </mxCell>
        <mxCell id="Dxokil4xpBBhdSCMF68X-193" value="" style="group" parent="1" connectable="0" vertex="1">
          <mxGeometry x="550" y="-370" width="340" height="120" as="geometry" />
        </mxCell>
        <mxCell id="Dxokil4xpBBhdSCMF68X-191" value="" style="rounded=1;whiteSpace=wrap;html=1;" parent="Dxokil4xpBBhdSCMF68X-193" vertex="1">
          <mxGeometry width="340" height="120" as="geometry" />
        </mxCell>
        <mxCell id="5RCuEXMcA8dU4Bn4oob3-2" value="Observability" style="swimlane;fontStyle=1;align=center;verticalAlign=top;childLayout=stackLayout;horizontal=1;startSize=26;horizontalStack=0;resizeParent=1;resizeParentMax=0;resizeLast=0;collapsible=1;marginBottom=0;whiteSpace=wrap;html=1;" parent="Dxokil4xpBBhdSCMF68X-193" vertex="1">
          <mxGeometry x="30" y="20" width="290" height="86" as="geometry" />
        </mxCell>
        <mxCell id="5RCuEXMcA8dU4Bn4oob3-6" value="+ write_user_log(user, message): None" style="text;strokeColor=none;fillColor=none;align=left;verticalAlign=top;spacingLeft=4;spacingRight=4;overflow=hidden;rotatable=0;points=[[0,0.5],[1,0.5]];portConstraint=eastwest;whiteSpace=wrap;html=1;" parent="5RCuEXMcA8dU4Bn4oob3-2" vertex="1">
          <mxGeometry y="26" width="290" height="26" as="geometry" />
        </mxCell>
        <mxCell id="5RCuEXMcA8dU4Bn4oob3-3" value="+ write_performance_log(message): None" style="text;strokeColor=none;fillColor=none;align=left;verticalAlign=top;spacingLeft=4;spacingRight=4;overflow=hidden;rotatable=0;points=[[0,0.5],[1,0.5]];portConstraint=eastwest;whiteSpace=wrap;html=1;" parent="5RCuEXMcA8dU4Bn4oob3-2" vertex="1">
          <mxGeometry y="52" width="290" height="26" as="geometry" />
        </mxCell>
        <mxCell id="5RCuEXMcA8dU4Bn4oob3-4" value="" style="line;strokeWidth=1;fillColor=none;align=left;verticalAlign=middle;spacingTop=-1;spacingLeft=3;spacingRight=3;rotatable=0;labelPosition=right;points=[];portConstraint=eastwest;strokeColor=inherit;" parent="5RCuEXMcA8dU4Bn4oob3-2" vertex="1">
          <mxGeometry y="78" width="290" height="8" as="geometry" />
        </mxCell>
        <mxCell id="Dxokil4xpBBhdSCMF68X-194" style="rounded=0;orthogonalLoop=1;jettySize=auto;html=1;exitX=0.5;exitY=1;exitDx=0;exitDy=0;entryX=0.5;entryY=0;entryDx=0;entryDy=0;endArrow=diamondThin;endFill=0;endSize=20;" parent="1" source="5RCuEXMcA8dU4Bn4oob3-2" target="5RCuEXMcA8dU4Bn4oob3-16" edge="1">
          <mxGeometry relative="1" as="geometry" />
        </mxCell>
        <mxCell id="Dxokil4xpBBhdSCMF68X-195" style="rounded=0;orthogonalLoop=1;jettySize=auto;html=1;exitX=0.75;exitY=1;exitDx=0;exitDy=0;entryX=0.5;entryY=0;entryDx=0;entryDy=0;strokeColor=default;align=center;verticalAlign=middle;fontFamily=Helvetica;fontSize=11;fontColor=default;labelBackgroundColor=default;endArrow=diamondThin;endFill=0;endSize=20;" parent="1" source="5RCuEXMcA8dU4Bn4oob3-2" target="Dxokil4xpBBhdSCMF68X-12" edge="1">
          <mxGeometry relative="1" as="geometry" />
        </mxCell>
        <mxCell id="Dxokil4xpBBhdSCMF68X-196" style="rounded=0;orthogonalLoop=1;jettySize=auto;html=1;exitX=0.25;exitY=1;exitDx=0;exitDy=0;entryX=0.848;entryY=0.012;entryDx=0;entryDy=0;entryPerimeter=0;strokeColor=default;align=center;verticalAlign=middle;fontFamily=Helvetica;fontSize=11;fontColor=default;labelBackgroundColor=default;endArrow=diamondThin;endFill=0;endSize=20;" parent="1" source="5RCuEXMcA8dU4Bn4oob3-2" target="Dxokil4xpBBhdSCMF68X-168" edge="1">
          <mxGeometry relative="1" as="geometry" />
        </mxCell>
        <mxCell id="Dxokil4xpBBhdSCMF68X-197" style="rounded=0;orthogonalLoop=1;jettySize=auto;html=1;exitX=0;exitY=0.5;exitDx=0;exitDy=0;entryX=1;entryY=0.5;entryDx=0;entryDy=0;endSize=13;endArrow=diamondThin;endFill=1;" parent="1" source="Dxokil4xpBBhdSCMF68X-9" target="Dxokil4xpBBhdSCMF68X-174" edge="1">
          <mxGeometry relative="1" as="geometry" />
        </mxCell>
        <mxCell id="Dxokil4xpBBhdSCMF68X-198" style="rounded=0;orthogonalLoop=1;jettySize=auto;html=1;exitX=0;exitY=0;exitDx=0;exitDy=0;endArrow=diamondThin;endFill=0;endSize=18;" parent="1" source="Dxokil4xpBBhdSCMF68X-117" target="Dxokil4xpBBhdSCMF68X-136" edge="1">
          <mxGeometry relative="1" as="geometry" />
        </mxCell>
        <mxCell id="Dxokil4xpBBhdSCMF68X-199" style="rounded=0;orthogonalLoop=1;jettySize=auto;html=1;exitX=0.75;exitY=0;exitDx=0;exitDy=0;endArrow=diamondThin;endFill=0;endSize=16;" parent="1" source="Dxokil4xpBBhdSCMF68X-132" target="Dxokil4xpBBhdSCMF68X-20" edge="1">
          <mxGeometry relative="1" as="geometry" />
        </mxCell>
        <mxCell id="Dxokil4xpBBhdSCMF68X-234" style="rounded=0;orthogonalLoop=1;jettySize=auto;html=1;endArrow=none;endFill=0;endSize=18;startArrow=diamondThin;startFill=0;startSize=18;" parent="1" source="Dxokil4xpBBhdSCMF68X-206" target="Dxokil4xpBBhdSCMF68X-168" edge="1">
          <mxGeometry relative="1" as="geometry" />
        </mxCell>
        <mxCell id="Dxokil4xpBBhdSCMF68X-251" value="" style="group" parent="1" connectable="0" vertex="1">
          <mxGeometry x="440" y="830" width="1230" height="630" as="geometry" />
        </mxCell>
        <mxCell id="Dxokil4xpBBhdSCMF68X-184" value="" style="rounded=1;whiteSpace=wrap;html=1;fillColor=#ffffff;" parent="Dxokil4xpBBhdSCMF68X-251" vertex="1">
          <mxGeometry width="1230" height="630" as="geometry" />
        </mxCell>
        <mxCell id="Dxokil4xpBBhdSCMF68X-122" style="rounded=0;orthogonalLoop=1;jettySize=auto;html=1;exitX=0.25;exitY=0;exitDx=0;exitDy=0;endArrow=diamondThin;endFill=0;strokeWidth=1;endSize=20;entryX=0.514;entryY=1.192;entryDx=0;entryDy=0;entryPerimeter=0;strokeColor=default;align=center;verticalAlign=middle;fontFamily=Helvetica;fontSize=11;fontColor=default;labelBackgroundColor=default;jumpSize=13;startSize=15;" parent="Dxokil4xpBBhdSCMF68X-251" source="Dxokil4xpBBhdSCMF68X-59" target="Dxokil4xpBBhdSCMF68X-120" edge="1">
          <mxGeometry relative="1" as="geometry" />
        </mxCell>
        <mxCell id="Dxokil4xpBBhdSCMF68X-59" value="AbstractFactoryEngine" style="swimlane;fontStyle=1;align=center;verticalAlign=top;childLayout=stackLayout;horizontal=1;startSize=26;horizontalStack=0;resizeParent=1;resizeParentMax=0;resizeLast=0;collapsible=1;marginBottom=0;whiteSpace=wrap;html=1;" parent="Dxokil4xpBBhdSCMF68X-251" vertex="1">
          <mxGeometry x="220" y="349" width="240" height="86" as="geometry" />
        </mxCell>
        <mxCell id="Dxokil4xpBBhdSCMF68X-60" value="" style="line;strokeWidth=1;fillColor=none;align=left;verticalAlign=middle;spacingTop=-1;spacingLeft=3;spacingRight=3;rotatable=0;labelPosition=right;points=[];portConstraint=eastwest;strokeColor=inherit;" parent="Dxokil4xpBBhdSCMF68X-59" vertex="1">
          <mxGeometry y="26" width="240" height="8" as="geometry" />
        </mxCell>
        <mxCell id="Dxokil4xpBBhdSCMF68X-61" value="create_electric_engine(): ElectricEngine" style="text;strokeColor=none;fillColor=none;align=left;verticalAlign=top;spacingLeft=4;spacingRight=4;overflow=hidden;rotatable=0;points=[[0,0.5],[1,0.5]];portConstraint=eastwest;whiteSpace=wrap;html=1;" parent="Dxokil4xpBBhdSCMF68X-59" vertex="1">
          <mxGeometry y="34" width="240" height="26" as="geometry" />
        </mxCell>
        <mxCell id="Dxokil4xpBBhdSCMF68X-62" value="create_gas_engine(): GasEngine" style="text;strokeColor=none;fillColor=none;align=left;verticalAlign=top;spacingLeft=4;spacingRight=4;overflow=hidden;rotatable=0;points=[[0,0.5],[1,0.5]];portConstraint=eastwest;whiteSpace=wrap;html=1;" parent="Dxokil4xpBBhdSCMF68X-59" vertex="1">
          <mxGeometry y="60" width="240" height="26" as="geometry" />
        </mxCell>
        <mxCell id="Dxokil4xpBBhdSCMF68X-63" style="rounded=0;orthogonalLoop=1;jettySize=auto;html=1;entryX=0.5;entryY=0;entryDx=0;entryDy=0;dashed=1;strokeColor=default;align=center;verticalAlign=middle;fontFamily=Helvetica;fontSize=11;fontColor=default;labelBackgroundColor=default;jumpSize=13;startSize=15;endArrow=open;endFill=0;endSize=13;" parent="Dxokil4xpBBhdSCMF68X-251" source="Dxokil4xpBBhdSCMF68X-64" target="Dxokil4xpBBhdSCMF68X-59" edge="1">
          <mxGeometry relative="1" as="geometry" />
        </mxCell>
        <mxCell id="Dxokil4xpBBhdSCMF68X-64" value="HighFactoryEngine" style="swimlane;fontStyle=1;align=center;verticalAlign=top;childLayout=stackLayout;horizontal=1;startSize=26;horizontalStack=0;resizeParent=1;resizeParentMax=0;resizeLast=0;collapsible=1;marginBottom=0;whiteSpace=wrap;html=1;" parent="Dxokil4xpBBhdSCMF68X-251" vertex="1">
          <mxGeometry x="330" y="188" width="240" height="86" as="geometry" />
        </mxCell>
        <mxCell id="Dxokil4xpBBhdSCMF68X-65" value="" style="line;strokeWidth=1;fillColor=none;align=left;verticalAlign=middle;spacingTop=-1;spacingLeft=3;spacingRight=3;rotatable=0;labelPosition=right;points=[];portConstraint=eastwest;strokeColor=inherit;" parent="Dxokil4xpBBhdSCMF68X-64" vertex="1">
          <mxGeometry y="26" width="240" height="8" as="geometry" />
        </mxCell>
        <mxCell id="Dxokil4xpBBhdSCMF68X-66" value="create_electric_engine: ElectricEngine" style="text;strokeColor=none;fillColor=none;align=left;verticalAlign=top;spacingLeft=4;spacingRight=4;overflow=hidden;rotatable=0;points=[[0,0.5],[1,0.5]];portConstraint=eastwest;whiteSpace=wrap;html=1;" parent="Dxokil4xpBBhdSCMF68X-64" vertex="1">
          <mxGeometry y="34" width="240" height="26" as="geometry" />
        </mxCell>
        <mxCell id="Dxokil4xpBBhdSCMF68X-67" value="create_gas_engine: GasEngine" style="text;strokeColor=none;fillColor=none;align=left;verticalAlign=top;spacingLeft=4;spacingRight=4;overflow=hidden;rotatable=0;points=[[0,0.5],[1,0.5]];portConstraint=eastwest;whiteSpace=wrap;html=1;" parent="Dxokil4xpBBhdSCMF68X-64" vertex="1">
          <mxGeometry y="60" width="240" height="26" as="geometry" />
        </mxCell>
        <mxCell id="Dxokil4xpBBhdSCMF68X-68" value="LowFactoryEngine" style="swimlane;fontStyle=1;align=center;verticalAlign=top;childLayout=stackLayout;horizontal=1;startSize=26;horizontalStack=0;resizeParent=1;resizeParentMax=0;resizeLast=0;collapsible=1;marginBottom=0;whiteSpace=wrap;html=1;" parent="Dxokil4xpBBhdSCMF68X-251" vertex="1">
          <mxGeometry x="410" y="484" width="220" height="86" as="geometry" />
        </mxCell>
        <mxCell id="Dxokil4xpBBhdSCMF68X-70" value="" style="line;strokeWidth=1;fillColor=none;align=left;verticalAlign=middle;spacingTop=-1;spacingLeft=3;spacingRight=3;rotatable=0;labelPosition=right;points=[];portConstraint=eastwest;strokeColor=inherit;" parent="Dxokil4xpBBhdSCMF68X-68" vertex="1">
          <mxGeometry y="26" width="220" height="8" as="geometry" />
        </mxCell>
        <mxCell id="Dxokil4xpBBhdSCMF68X-71" value="create_electric_engine: ElectricEngine" style="text;strokeColor=none;fillColor=none;align=left;verticalAlign=top;spacingLeft=4;spacingRight=4;overflow=hidden;rotatable=0;points=[[0,0.5],[1,0.5]];portConstraint=eastwest;whiteSpace=wrap;html=1;" parent="Dxokil4xpBBhdSCMF68X-68" vertex="1">
          <mxGeometry y="34" width="220" height="26" as="geometry" />
        </mxCell>
        <mxCell id="Dxokil4xpBBhdSCMF68X-72" value="create_gas_engine: GasEngine" style="text;strokeColor=none;fillColor=none;align=left;verticalAlign=top;spacingLeft=4;spacingRight=4;overflow=hidden;rotatable=0;points=[[0,0.5],[1,0.5]];portConstraint=eastwest;whiteSpace=wrap;html=1;" parent="Dxokil4xpBBhdSCMF68X-68" vertex="1">
          <mxGeometry y="60" width="220" height="26" as="geometry" />
        </mxCell>
        <mxCell id="Dxokil4xpBBhdSCMF68X-73" style="rounded=0;orthogonalLoop=1;jettySize=auto;html=1;exitX=0.5;exitY=1;exitDx=0;exitDy=0;entryX=0.5;entryY=0;entryDx=0;entryDy=0;strokeColor=default;align=center;verticalAlign=middle;fontFamily=Helvetica;fontSize=11;fontColor=default;labelBackgroundColor=default;endArrow=diamondThin;endFill=0;endSize=20;jumpSize=13;startSize=15;" parent="Dxokil4xpBBhdSCMF68X-251" source="Dxokil4xpBBhdSCMF68X-74" target="Dxokil4xpBBhdSCMF68X-68" edge="1">
          <mxGeometry relative="1" as="geometry" />
        </mxCell>
        <mxCell id="Dxokil4xpBBhdSCMF68X-74" value="GasEngine" style="swimlane;fontStyle=1;align=center;verticalAlign=top;childLayout=stackLayout;horizontal=1;startSize=26;horizontalStack=0;resizeParent=1;resizeParentMax=0;resizeLast=0;collapsible=1;marginBottom=0;whiteSpace=wrap;html=1;" parent="Dxokil4xpBBhdSCMF68X-251" vertex="1">
          <mxGeometry x="590" y="356" width="160" height="34" as="geometry" />
        </mxCell>
        <mxCell id="Dxokil4xpBBhdSCMF68X-75" value="" style="line;strokeWidth=1;fillColor=none;align=left;verticalAlign=middle;spacingTop=-1;spacingLeft=3;spacingRight=3;rotatable=0;labelPosition=right;points=[];portConstraint=eastwest;strokeColor=inherit;" parent="Dxokil4xpBBhdSCMF68X-74" vertex="1">
          <mxGeometry y="26" width="160" height="8" as="geometry" />
        </mxCell>
        <mxCell id="Dxokil4xpBBhdSCMF68X-76" style="rounded=0;orthogonalLoop=1;jettySize=auto;html=1;exitX=0.5;exitY=0;exitDx=0;exitDy=0;entryX=1;entryY=0.5;entryDx=0;entryDy=0;strokeColor=default;align=center;verticalAlign=middle;fontFamily=Helvetica;fontSize=11;fontColor=default;labelBackgroundColor=default;endArrow=diamondThin;endFill=0;endSize=20;jumpSize=13;startSize=15;" parent="Dxokil4xpBBhdSCMF68X-251" source="Dxokil4xpBBhdSCMF68X-77" target="Dxokil4xpBBhdSCMF68X-67" edge="1">
          <mxGeometry relative="1" as="geometry" />
        </mxCell>
        <mxCell id="Dxokil4xpBBhdSCMF68X-77" value="ElectricEngine" style="swimlane;fontStyle=1;align=center;verticalAlign=top;childLayout=stackLayout;horizontal=1;startSize=26;horizontalStack=0;resizeParent=1;resizeParentMax=0;resizeLast=0;collapsible=1;marginBottom=0;whiteSpace=wrap;html=1;" parent="Dxokil4xpBBhdSCMF68X-251" vertex="1">
          <mxGeometry x="810" y="356" width="160" height="34" as="geometry" />
        </mxCell>
        <mxCell id="Dxokil4xpBBhdSCMF68X-78" value="" style="line;strokeWidth=1;fillColor=none;align=left;verticalAlign=middle;spacingTop=-1;spacingLeft=3;spacingRight=3;rotatable=0;labelPosition=right;points=[];portConstraint=eastwest;strokeColor=inherit;" parent="Dxokil4xpBBhdSCMF68X-77" vertex="1">
          <mxGeometry y="26" width="160" height="8" as="geometry" />
        </mxCell>
        <mxCell id="Dxokil4xpBBhdSCMF68X-87" value="Engine" style="swimlane;fontStyle=1;align=center;verticalAlign=top;childLayout=stackLayout;horizontal=1;startSize=26;horizontalStack=0;resizeParent=1;resizeParentMax=0;resizeLast=0;collapsible=1;marginBottom=0;whiteSpace=wrap;html=1;" parent="Dxokil4xpBBhdSCMF68X-251" vertex="1">
          <mxGeometry x="750" y="26" width="160" height="180" as="geometry" />
        </mxCell>
        <mxCell id="Dxokil4xpBBhdSCMF68X-88" value="&lt;div&gt;- torque: int&lt;/div&gt;&lt;div&gt;&lt;span style=&quot;background-color: initial;&quot;&gt;- maximum_speed: int&lt;/span&gt;&lt;/div&gt;&lt;div&gt;&lt;span style=&quot;background-color: initial;&quot;&gt;- dimmensions: str&lt;/span&gt;&lt;/div&gt;&lt;div&gt;- power: int&lt;/div&gt;&lt;div&gt;- stability: str&lt;/div&gt;&lt;div&gt;- weight: float&lt;/div&gt;" style="text;strokeColor=none;fillColor=none;align=left;verticalAlign=top;spacingLeft=4;spacingRight=4;overflow=hidden;rotatable=0;points=[[0,0.5],[1,0.5]];portConstraint=eastwest;whiteSpace=wrap;html=1;" parent="Dxokil4xpBBhdSCMF68X-87" vertex="1">
          <mxGeometry y="26" width="160" height="94" as="geometry" />
        </mxCell>
        <mxCell id="Dxokil4xpBBhdSCMF68X-89" value="" style="line;strokeWidth=1;fillColor=none;align=left;verticalAlign=middle;spacingTop=-1;spacingLeft=3;spacingRight=3;rotatable=0;labelPosition=right;points=[];portConstraint=eastwest;strokeColor=inherit;" parent="Dxokil4xpBBhdSCMF68X-87" vertex="1">
          <mxGeometry y="120" width="160" height="8" as="geometry" />
        </mxCell>
        <mxCell id="Dxokil4xpBBhdSCMF68X-90" value="GasEngine(Engine)" style="text;strokeColor=none;fillColor=none;align=left;verticalAlign=top;spacingLeft=4;spacingRight=4;overflow=hidden;rotatable=0;points=[[0,0.5],[1,0.5]];portConstraint=eastwest;whiteSpace=wrap;html=1;" parent="Dxokil4xpBBhdSCMF68X-87" vertex="1">
          <mxGeometry y="128" width="160" height="26" as="geometry" />
        </mxCell>
        <mxCell id="Dxokil4xpBBhdSCMF68X-91" value="ElectricEngine(Engine)" style="text;strokeColor=none;fillColor=none;align=left;verticalAlign=top;spacingLeft=4;spacingRight=4;overflow=hidden;rotatable=0;points=[[0,0.5],[1,0.5]];portConstraint=eastwest;whiteSpace=wrap;html=1;" parent="Dxokil4xpBBhdSCMF68X-87" vertex="1">
          <mxGeometry y="154" width="160" height="26" as="geometry" />
        </mxCell>
        <mxCell id="Dxokil4xpBBhdSCMF68X-107" style="rounded=0;orthogonalLoop=1;jettySize=auto;html=1;exitX=0.5;exitY=0;exitDx=0;exitDy=0;entryX=0.446;entryY=1.015;entryDx=0;entryDy=0;entryPerimeter=0;dashed=1;strokeColor=default;align=center;verticalAlign=middle;fontFamily=Helvetica;fontSize=11;fontColor=default;labelBackgroundColor=default;endArrow=open;endFill=0;jumpSize=13;startSize=15;endSize=13;" parent="Dxokil4xpBBhdSCMF68X-251" source="Dxokil4xpBBhdSCMF68X-68" target="Dxokil4xpBBhdSCMF68X-62" edge="1">
          <mxGeometry relative="1" as="geometry" />
        </mxCell>
        <mxCell id="Dxokil4xpBBhdSCMF68X-108" style="rounded=0;orthogonalLoop=1;jettySize=auto;html=1;entryX=0.495;entryY=1.04;entryDx=0;entryDy=0;entryPerimeter=0;endArrow=diamondThin;endFill=0;endSize=20;strokeColor=default;align=center;verticalAlign=middle;fontFamily=Helvetica;fontSize=11;fontColor=default;labelBackgroundColor=default;jumpSize=13;startSize=15;" parent="Dxokil4xpBBhdSCMF68X-251" source="Dxokil4xpBBhdSCMF68X-74" target="Dxokil4xpBBhdSCMF68X-67" edge="1">
          <mxGeometry relative="1" as="geometry" />
        </mxCell>
        <mxCell id="Dxokil4xpBBhdSCMF68X-109" style="rounded=0;orthogonalLoop=1;jettySize=auto;html=1;exitX=0.5;exitY=1;exitDx=0;exitDy=0;entryX=1;entryY=0;entryDx=0;entryDy=0;strokeColor=default;align=center;verticalAlign=middle;fontFamily=Helvetica;fontSize=11;fontColor=default;labelBackgroundColor=default;endArrow=diamondThin;endFill=0;endSize=20;jumpSize=13;startSize=15;" parent="Dxokil4xpBBhdSCMF68X-251" source="Dxokil4xpBBhdSCMF68X-77" target="Dxokil4xpBBhdSCMF68X-68" edge="1">
          <mxGeometry relative="1" as="geometry">
            <mxPoint x="628.6800000000003" y="538.6779999999999" as="targetPoint" />
          </mxGeometry>
        </mxCell>
        <mxCell id="Dxokil4xpBBhdSCMF68X-110" style="rounded=0;orthogonalLoop=1;jettySize=auto;html=1;exitX=0.5;exitY=0;exitDx=0;exitDy=0;entryX=0.509;entryY=1.019;entryDx=0;entryDy=0;entryPerimeter=0;endArrow=block;endFill=0;strokeWidth=1;endSize=11;" parent="Dxokil4xpBBhdSCMF68X-251" source="Dxokil4xpBBhdSCMF68X-74" target="Dxokil4xpBBhdSCMF68X-91" edge="1">
          <mxGeometry relative="1" as="geometry" />
        </mxCell>
        <mxCell id="Dxokil4xpBBhdSCMF68X-111" style="rounded=0;orthogonalLoop=1;jettySize=auto;html=1;exitX=0.5;exitY=0;exitDx=0;exitDy=0;entryX=0.579;entryY=1.001;entryDx=0;entryDy=0;entryPerimeter=0;strokeColor=default;strokeWidth=1;align=center;verticalAlign=middle;fontFamily=Helvetica;fontSize=11;fontColor=default;labelBackgroundColor=default;endArrow=block;endFill=0;endSize=11;" parent="Dxokil4xpBBhdSCMF68X-251" source="Dxokil4xpBBhdSCMF68X-77" target="Dxokil4xpBBhdSCMF68X-91" edge="1">
          <mxGeometry relative="1" as="geometry" />
        </mxCell>
        <mxCell id="Dxokil4xpBBhdSCMF68X-117" value="EnginesFacade" style="swimlane;fontStyle=1;align=center;verticalAlign=top;childLayout=stackLayout;horizontal=1;startSize=26;horizontalStack=0;resizeParent=1;resizeParentMax=0;resizeLast=0;collapsible=1;marginBottom=0;whiteSpace=wrap;html=1;" parent="Dxokil4xpBBhdSCMF68X-251" vertex="1">
          <mxGeometry x="30" y="94" width="270" height="112" as="geometry" />
        </mxCell>
        <mxCell id="Dxokil4xpBBhdSCMF68X-119" value="- high_factory: HighFactoryEngine" style="text;strokeColor=none;fillColor=none;align=left;verticalAlign=top;spacingLeft=4;spacingRight=4;overflow=hidden;rotatable=0;points=[[0,0.5],[1,0.5]];portConstraint=eastwest;whiteSpace=wrap;html=1;" parent="Dxokil4xpBBhdSCMF68X-117" vertex="1">
          <mxGeometry y="26" width="270" height="26" as="geometry" />
        </mxCell>
        <mxCell id="Dxokil4xpBBhdSCMF68X-121" value="- low_factory: LowFactoryEngine" style="text;strokeColor=none;fillColor=none;align=left;verticalAlign=top;spacingLeft=4;spacingRight=4;overflow=hidden;rotatable=0;points=[[0,0.5],[1,0.5]];portConstraint=eastwest;whiteSpace=wrap;html=1;" parent="Dxokil4xpBBhdSCMF68X-117" vertex="1">
          <mxGeometry y="52" width="270" height="26" as="geometry" />
        </mxCell>
        <mxCell id="Dxokil4xpBBhdSCMF68X-118" value="" style="line;strokeWidth=1;fillColor=none;align=left;verticalAlign=middle;spacingTop=-1;spacingLeft=3;spacingRight=3;rotatable=0;labelPosition=right;points=[];portConstraint=eastwest;strokeColor=inherit;" parent="Dxokil4xpBBhdSCMF68X-117" vertex="1">
          <mxGeometry y="78" width="270" height="8" as="geometry" />
        </mxCell>
        <mxCell id="Dxokil4xpBBhdSCMF68X-120" value="+get_engine(type_engine, price_engine): Engine" style="text;strokeColor=none;fillColor=none;align=left;verticalAlign=top;spacingLeft=4;spacingRight=4;overflow=hidden;rotatable=0;points=[[0,0.5],[1,0.5]];portConstraint=eastwest;whiteSpace=wrap;html=1;" parent="Dxokil4xpBBhdSCMF68X-117" vertex="1">
          <mxGeometry y="86" width="270" height="26" as="geometry" />
        </mxCell>
        <mxCell id="Dxokil4xpBBhdSCMF68X-247" style="rounded=0;orthogonalLoop=1;jettySize=auto;html=1;exitX=0.5;exitY=0;exitDx=0;exitDy=0;strokeColor=default;strokeWidth=1;align=center;verticalAlign=middle;fontFamily=Helvetica;fontSize=11;fontColor=default;labelBackgroundColor=default;endArrow=block;endFill=0;endSize=11;" parent="Dxokil4xpBBhdSCMF68X-251" source="Dxokil4xpBBhdSCMF68X-245" target="Dxokil4xpBBhdSCMF68X-87" edge="1">
          <mxGeometry relative="1" as="geometry" />
        </mxCell>
        <mxCell id="Dxokil4xpBBhdSCMF68X-248" style="rounded=0;orthogonalLoop=1;jettySize=auto;html=1;exitX=0.5;exitY=1;exitDx=0;exitDy=0;strokeColor=default;align=center;verticalAlign=middle;fontFamily=Helvetica;fontSize=11;fontColor=default;labelBackgroundColor=default;jumpSize=13;startSize=15;endArrow=diamondThin;endFill=0;endSize=20;entryX=1;entryY=0.5;entryDx=0;entryDy=0;" parent="Dxokil4xpBBhdSCMF68X-251" source="Dxokil4xpBBhdSCMF68X-245" target="Dxokil4xpBBhdSCMF68X-71" edge="1">
          <mxGeometry relative="1" as="geometry" />
        </mxCell>
        <mxCell id="Dxokil4xpBBhdSCMF68X-249" style="rounded=0;orthogonalLoop=1;jettySize=auto;html=1;exitX=0.5;exitY=0;exitDx=0;exitDy=0;entryX=1;entryY=0.25;entryDx=0;entryDy=0;endArrow=diamondThin;endFill=0;strokeColor=default;align=center;verticalAlign=middle;fontFamily=Helvetica;fontSize=11;fontColor=default;labelBackgroundColor=default;jumpSize=13;startSize=15;endSize=20;" parent="Dxokil4xpBBhdSCMF68X-251" source="Dxokil4xpBBhdSCMF68X-245" target="Dxokil4xpBBhdSCMF68X-64" edge="1">
          <mxGeometry relative="1" as="geometry" />
        </mxCell>
        <mxCell id="Dxokil4xpBBhdSCMF68X-245" value="HybridEngine" style="swimlane;fontStyle=1;align=center;verticalAlign=top;childLayout=stackLayout;horizontal=1;startSize=26;horizontalStack=0;resizeParent=1;resizeParentMax=0;resizeLast=0;collapsible=1;marginBottom=0;whiteSpace=wrap;html=1;" parent="Dxokil4xpBBhdSCMF68X-251" vertex="1">
          <mxGeometry x="1030" y="356" width="160" height="58" as="geometry" />
        </mxCell>
        <mxCell id="Dxokil4xpBBhdSCMF68X-250" value="+ electric_power: int" style="text;strokeColor=none;fillColor=none;align=left;verticalAlign=top;spacingLeft=4;spacingRight=4;overflow=hidden;rotatable=0;points=[[0,0.5],[1,0.5]];portConstraint=eastwest;whiteSpace=wrap;html=1;" parent="Dxokil4xpBBhdSCMF68X-245" vertex="1">
          <mxGeometry y="26" width="160" height="24" as="geometry" />
        </mxCell>
        <mxCell id="Dxokil4xpBBhdSCMF68X-246" value="" style="line;strokeWidth=1;fillColor=none;align=left;verticalAlign=middle;spacingTop=-1;spacingLeft=3;spacingRight=3;rotatable=0;labelPosition=right;points=[];portConstraint=eastwest;strokeColor=inherit;" parent="Dxokil4xpBBhdSCMF68X-245" vertex="1">
          <mxGeometry y="50" width="160" height="8" as="geometry" />
        </mxCell>
        <mxCell id="Dxokil4xpBBhdSCMF68X-289" value="" style="group" parent="1" connectable="0" vertex="1">
          <mxGeometry x="-473" y="-320" width="783" height="220" as="geometry" />
        </mxCell>
        <mxCell id="Dxokil4xpBBhdSCMF68X-287" value="" style="rounded=1;whiteSpace=wrap;html=1;" parent="Dxokil4xpBBhdSCMF68X-289" vertex="1">
          <mxGeometry width="783" height="220" as="geometry" />
        </mxCell>
        <mxCell id="Dxokil4xpBBhdSCMF68X-232" style="rounded=0;orthogonalLoop=1;jettySize=auto;html=1;endArrow=open;endFill=0;endSize=12;startArrow=diamondThin;startFill=0;startSize=16;" parent="Dxokil4xpBBhdSCMF68X-289" source="Dxokil4xpBBhdSCMF68X-206" target="Dxokil4xpBBhdSCMF68X-213" edge="1">
          <mxGeometry relative="1" as="geometry" />
        </mxCell>
        <mxCell id="Dxokil4xpBBhdSCMF68X-206" value="Newsletter" style="swimlane;fontStyle=1;align=center;verticalAlign=top;childLayout=stackLayout;horizontal=1;startSize=26;horizontalStack=0;resizeParent=1;resizeParentMax=0;resizeLast=0;collapsible=1;marginBottom=0;whiteSpace=wrap;html=1;" parent="Dxokil4xpBBhdSCMF68X-289" vertex="1">
          <mxGeometry x="528" y="30" width="226" height="164" as="geometry" />
        </mxCell>
        <mxCell id="Dxokil4xpBBhdSCMF68X-235" value="- catalog: Catalog" style="text;strokeColor=none;fillColor=none;align=left;verticalAlign=top;spacingLeft=4;spacingRight=4;overflow=hidden;rotatable=0;points=[[0,0.5],[1,0.5]];portConstraint=eastwest;whiteSpace=wrap;html=1;" parent="Dxokil4xpBBhdSCMF68X-206" vertex="1">
          <mxGeometry y="26" width="226" height="26" as="geometry" />
        </mxCell>
        <mxCell id="Dxokil4xpBBhdSCMF68X-207" value="- subscribers: Subscriber[]" style="text;strokeColor=none;fillColor=none;align=left;verticalAlign=top;spacingLeft=4;spacingRight=4;overflow=hidden;rotatable=0;points=[[0,0.5],[1,0.5]];portConstraint=eastwest;whiteSpace=wrap;html=1;" parent="Dxokil4xpBBhdSCMF68X-206" vertex="1">
          <mxGeometry y="52" width="226" height="26" as="geometry" />
        </mxCell>
        <mxCell id="Dxokil4xpBBhdSCMF68X-208" value="" style="line;strokeWidth=1;fillColor=none;align=left;verticalAlign=middle;spacingTop=-1;spacingLeft=3;spacingRight=3;rotatable=0;labelPosition=right;points=[];portConstraint=eastwest;strokeColor=inherit;" parent="Dxokil4xpBBhdSCMF68X-206" vertex="1">
          <mxGeometry y="78" width="226" height="8" as="geometry" />
        </mxCell>
        <mxCell id="Dxokil4xpBBhdSCMF68X-209" value="+ add_sub(email)" style="text;strokeColor=none;fillColor=none;align=left;verticalAlign=top;spacingLeft=4;spacingRight=4;overflow=hidden;rotatable=0;points=[[0,0.5],[1,0.5]];portConstraint=eastwest;whiteSpace=wrap;html=1;" parent="Dxokil4xpBBhdSCMF68X-206" vertex="1">
          <mxGeometry y="86" width="226" height="26" as="geometry" />
        </mxCell>
        <mxCell id="Dxokil4xpBBhdSCMF68X-210" value="+ delete_sub(email)" style="text;strokeColor=none;fillColor=none;align=left;verticalAlign=top;spacingLeft=4;spacingRight=4;overflow=hidden;rotatable=0;points=[[0,0.5],[1,0.5]];portConstraint=eastwest;whiteSpace=wrap;html=1;" parent="Dxokil4xpBBhdSCMF68X-206" vertex="1">
          <mxGeometry y="112" width="226" height="26" as="geometry" />
        </mxCell>
        <mxCell id="Dxokil4xpBBhdSCMF68X-212" value="+ notify_subscribers(msg)" style="text;strokeColor=none;fillColor=none;align=left;verticalAlign=top;spacingLeft=4;spacingRight=4;overflow=hidden;rotatable=0;points=[[0,0.5],[1,0.5]];portConstraint=eastwest;whiteSpace=wrap;html=1;" parent="Dxokil4xpBBhdSCMF68X-206" vertex="1">
          <mxGeometry y="138" width="226" height="26" as="geometry" />
        </mxCell>
        <mxCell id="Dxokil4xpBBhdSCMF68X-213" value="Observer&lt;br&gt;&amp;lt;&amp;lt;interface&amp;gt;&amp;gt;" style="swimlane;fontStyle=1;align=center;verticalAlign=top;childLayout=stackLayout;horizontal=1;startSize=40;horizontalStack=0;resizeParent=1;resizeParentMax=0;resizeLast=0;collapsible=1;marginBottom=0;whiteSpace=wrap;html=1;" parent="Dxokil4xpBBhdSCMF68X-289" vertex="1">
          <mxGeometry x="43" y="75" width="226" height="74" as="geometry" />
        </mxCell>
        <mxCell id="Dxokil4xpBBhdSCMF68X-215" value="" style="line;strokeWidth=1;fillColor=none;align=left;verticalAlign=middle;spacingTop=-1;spacingLeft=3;spacingRight=3;rotatable=0;labelPosition=right;points=[];portConstraint=eastwest;strokeColor=inherit;" parent="Dxokil4xpBBhdSCMF68X-213" vertex="1">
          <mxGeometry y="40" width="226" height="8" as="geometry" />
        </mxCell>
        <mxCell id="Dxokil4xpBBhdSCMF68X-214" value="+ update(msg)" style="text;strokeColor=none;fillColor=none;align=left;verticalAlign=top;spacingLeft=4;spacingRight=4;overflow=hidden;rotatable=0;points=[[0,0.5],[1,0.5]];portConstraint=eastwest;whiteSpace=wrap;html=1;" parent="Dxokil4xpBBhdSCMF68X-213" vertex="1">
          <mxGeometry y="48" width="226" height="26" as="geometry" />
        </mxCell>
        <mxCell id="Dxokil4xpBBhdSCMF68X-230" style="rounded=0;orthogonalLoop=1;jettySize=auto;html=1;exitX=0.5;exitY=0;exitDx=0;exitDy=0;entryX=0.5;entryY=1;entryDx=0;entryDy=0;endArrow=block;endFill=0;endSize=13;dashed=1;dashPattern=8 8;" parent="1" source="Dxokil4xpBBhdSCMF68X-141" target="Dxokil4xpBBhdSCMF68X-213" edge="1">
          <mxGeometry relative="1" as="geometry" />
        </mxCell>
      </root>
    </mxGraphModel>
  </diagram>
</mxfile>
